<svg width="41" height="41" viewBox="0 0 41 41" fill="none" xmlns="http://www.w3.org/2000/svg">
<path d="M26.7889 7H15.3973C13.1707 7.0017 11.0358 7.88696 9.46139 9.46139C7.88696 11.0358 7.0017 13.1707 7 15.3973V26.7889C7.00136 29.0157 7.88647 31.1509 9.46094 32.7257C11.0354 34.3004 13.1705 35.1858 15.3973 35.1875H26.7889C29.0156 35.1855 31.1505 34.2999 32.7249 32.7253C34.2993 31.1506 35.1845 29.0156 35.1862 26.7889V15.3973C35.1852 13.1705 34.3002 11.0352 32.7256 9.46064C31.151 7.88606 29.0157 7.00102 26.7889 7ZM32.3521 26.7889C32.3518 28.2643 31.7655 29.6791 30.7223 30.7223C29.6791 31.7655 28.2643 32.3518 26.7889 32.3521H15.3973C14.6668 32.3521 13.9435 32.2082 13.2686 31.9286C12.5937 31.649 11.9805 31.2392 11.464 30.7226C10.9475 30.206 10.5378 29.5927 10.2584 28.9177C9.97898 28.2428 9.83524 27.5194 9.83541 26.7889V15.3973C9.83524 14.6669 9.97899 13.9435 10.2584 13.2687C10.5379 12.5938 10.9476 11.9806 11.4641 11.4641C11.9806 10.9476 12.5938 10.5379 13.2687 10.2584C13.9435 9.97899 14.6669 9.83524 15.3973 9.83541H26.7889C28.2639 9.83575 29.6784 10.4218 30.7214 11.4648C31.7644 12.5078 32.3505 13.9223 32.3508 15.3973L32.3521 26.7889Z" fill="#FF7272"/>
<path d="M21.0934 13.8061C17.0729 13.8061 13.8057 17.0745 13.8057 21.0938C13.8057 25.1131 17.0741 28.3816 21.0934 28.3816C25.1127 28.3816 28.3812 25.1131 28.3812 21.0938C28.3812 17.0745 25.114 13.8061 21.0934 13.8061ZM21.0934 25.5462C19.9126 25.5463 18.78 25.0774 17.9449 24.2425C17.1098 23.4077 16.6406 22.2753 16.6404 21.0944C16.6403 19.9136 17.1092 18.7811 17.944 17.946C18.7789 17.1109 19.9113 16.6416 21.0921 16.6415C22.273 16.6413 23.4055 17.1102 24.2406 17.9451C25.0757 18.7799 25.5449 19.9123 25.5451 21.0932C25.5453 22.274 25.0764 23.4065 24.2415 24.2416C23.4067 25.0767 22.2742 25.546 21.0934 25.5462ZM28.3965 12.1135C28.7418 12.1138 29.0793 12.2164 29.3663 12.4084C29.6533 12.6004 29.8769 12.8731 30.0089 13.1922C30.1409 13.5112 30.1754 13.8622 30.108 14.2009C30.0406 14.5395 29.8743 14.8506 29.6301 15.0947C29.386 15.3389 29.0749 15.5052 28.7363 15.5726C28.3976 15.64 28.0466 15.6055 27.7276 15.4735C27.4085 15.3415 27.1357 15.1179 26.9438 14.8309C26.7518 14.5439 26.6492 14.2064 26.6489 13.8611C26.6489 12.8976 27.3024 12.1135 28.3965 12.1135Z" fill="#FF7272"/>
</svg>
