<svg width="32" height="32" viewBox="0 0 32 32" fill="none" xmlns="http://www.w3.org/2000/svg">
<path d="M16.0002 3.66675C14.861 3.66723 13.7332 3.8928 12.6815 4.3305C11.6298 4.7682 10.675 5.40939 9.87183 6.21725C8.24516 7.85346 7.33254 10.0672 7.3335 12.3744C7.3335 15.1404 8.0495 17.1526 10.802 20.5241C12.0807 21.9777 13.201 23.5633 14.1442 25.2541C15.1422 27.2869 15.0245 28.6667 16.0002 28.6667C16.9758 28.6667 16.8582 27.2869 17.8562 25.2541C18.7993 23.5633 19.9196 21.9777 21.1983 20.5241C23.9508 17.1526 24.6668 15.1402 24.6668 12.3744C24.6678 10.0672 23.7551 7.85348 22.1285 6.21725C21.3254 5.40939 20.3705 4.7682 19.3188 4.3305C18.2671 3.8928 17.1393 3.66723 16.0002 3.66675Z" stroke="#FF7272" stroke-width="2"/>
<path d="M15.9998 15.6667C17.8408 15.6667 19.3332 14.1743 19.3332 12.3333C19.3332 10.4924 17.8408 9 15.9998 9C14.1589 9 12.6665 10.4924 12.6665 12.3333C12.6665 14.1743 14.1589 15.6667 15.9998 15.6667Z" stroke="#FF7272" stroke-width="2"/>
</svg>
