<svg width="35" height="35" viewBox="0 0 35 35" fill="none" xmlns="http://www.w3.org/2000/svg">
<path d="M25.3969 20.9738C24.9638 20.7566 22.8332 19.7095 22.4365 19.5636C22.0384 19.4193 21.7496 19.3478 21.4594 19.7824C21.1721 20.2155 20.3409 21.1911 20.0886 21.4799C19.8363 21.7701 19.5825 21.8051 19.1494 21.5893C18.7163 21.3705 17.3192 20.9141 15.664 19.4382C14.3763 18.289 13.5056 16.8701 13.2534 16.4355C13.0011 16.0024 13.2271 15.7676 13.4429 15.5518C13.6384 15.3578 13.8775 15.0457 14.0934 14.7934C14.3106 14.5397 14.3821 14.3588 14.5279 14.0686C14.6723 13.7799 14.6009 13.5276 14.4915 13.3103C14.3821 13.093 13.5159 10.9595 13.1556 10.0917C12.8027 9.24737 12.4454 9.36257 12.18 9.34799C11.9277 9.33632 11.639 9.33341 11.3488 9.33341C11.06 9.33341 10.5904 9.44132 10.1938 9.87591C9.7971 10.309 8.6771 11.3576 8.6771 13.4911C8.6771 15.6232 10.2302 17.6838 10.4461 17.974C10.6633 18.2628 13.5027 22.6407 17.85 24.5176C18.884 24.9638 19.6904 25.2307 20.3204 25.4291C21.3588 25.7601 22.3038 25.7134 23.049 25.6011C23.8817 25.4772 25.6128 24.5526 25.9744 23.5405C26.3361 22.5284 26.3361 21.6607 26.2267 21.4799C26.1188 21.2991 25.8315 21.1911 25.3969 20.9738ZM17.4898 31.7699H17.484C14.9024 31.7701 12.3683 31.076 10.1471 29.7603L9.62064 29.4482L4.16501 30.8803L5.62043 25.5603L5.27772 25.0149C3.83461 22.7169 3.07117 20.0576 3.07563 17.344C3.07709 9.39612 9.54481 2.92986 17.4957 2.92986C21.3457 2.92986 24.9652 4.43194 27.6865 7.15611C29.0292 8.49285 30.0934 10.0826 30.8176 11.8333C31.5417 13.5841 31.9115 15.4611 31.9055 17.3557C31.9011 25.3036 25.4348 31.7699 17.4898 31.7699ZM29.7588 5.08673C28.152 3.46933 26.2402 2.18689 24.1341 1.31373C22.0281 0.44057 19.7697 -0.00594454 17.4898 5.9759e-05C7.93043 5.9759e-05 0.150209 7.78028 0.145834 17.3426C0.145834 20.3993 0.943543 23.383 2.46167 26.0124L0 35.0001L9.19481 32.588C11.7375 33.9733 14.5869 34.6993 17.4825 34.6997H17.4898C27.0478 34.6997 34.8294 26.9195 34.8338 17.3557C34.8409 15.0767 34.396 12.819 33.5248 10.713C32.6537 8.60711 31.3737 6.6948 29.7588 5.08673Z" fill="white"/>
</svg>
