<svg width="91" height="87" viewBox="0 0 91 87" fill="none" xmlns="http://www.w3.org/2000/svg">
<path d="M70.8715 51.0886C71.2276 48.4773 69.4372 47.6266 68.4976 47.5277C69.7636 43.0568 71.8606 42.7634 72.7508 43.1755C74.2543 47.1321 70.5418 53.9571 68.4976 56.875V53.9571C70.2384 53.1262 70.8055 51.6986 70.8715 51.0886Z" fill="white"/>
<path d="M81.1584 41.2962C80.5254 40.584 77.7624 39.3839 76.4601 38.8728C77.8844 47.3398 71.7452 58.1608 68.4976 62.513C70.6341 62.3943 76.1468 55.9353 78.6361 52.7206C77.7261 56.6771 73.3772 62.7108 71.3166 65.2331C73.5718 65.9057 77.8943 56.9079 79.7736 52.325C80.499 48.9454 81.7915 42.0083 81.1584 41.2962Z" fill="white"/>
<path d="M84.5212 45.6483L82.3945 44.5603C81.9198 51.6029 77.9435 59.628 76.0146 62.7603C77.9138 61.059 81.4549 56.4464 82.988 54.3527C82.8298 55.6583 79.7568 61.392 78.2402 64.0956C83.5419 59.4269 84.6366 49.8522 84.5212 45.6483Z" fill="white"/>
<path d="M88.3291 52.325L85.5596 51.0886C85.5596 51.326 84.8672 54.2209 84.521 55.6386C85.55 55.876 86.961 56.5618 87.5378 56.875L88.3291 52.325Z" fill="white"/>
<path d="M62.0185 55.7375C60.9898 52.4536 58.1609 52.7206 56.875 53.2647C57.1915 54.6494 60.6666 57.7652 62.3647 59.15C62.6779 59.3807 63.0472 59.0214 62.0185 55.7375Z" fill="white"/>
<path d="M64.5409 56.875L63.0572 56.5288C64.1255 60.7623 62.3483 65.6453 61.3262 67.5576C61.2471 59.2489 57.7654 58.029 56.0344 58.4576C56.4696 61.5832 55.3914 62.9252 54.798 63.2054L54.0067 62.513L53.6605 62.9087C53.8187 63.7395 52.0449 65.7277 51.1382 66.6179L50.792 67.5576C51.0294 71.2767 47.7257 75.3388 46.0442 76.9049L45.7474 76.3114C45.7474 73.5023 45.4177 72.0746 45.2529 71.7119L40.505 66.9641C38.7642 65.8167 37.6365 63.7824 37.2904 62.9087L36.7958 63.2054H36.1529C34.6889 62.4932 34.8505 59.7435 35.1143 58.4576C32.7008 58.7741 32.2293 58.3257 32.2952 58.0619C33.5613 56.0837 34.1746 54.3032 34.323 53.6603C33.9273 52.3151 31.5205 52.8361 30.3664 53.2647C27.9925 56.1529 28.4871 60.8975 29.0311 62.9087C29.3081 61.3261 30.5972 59.7435 31.2072 59.15L31.5534 59.5456C30.3664 63.2252 29.9708 66.6508 29.9213 67.9038C26.4 62.9581 27.8607 55.688 29.0311 52.6712C26.855 52.1964 25.9154 52.869 25.7175 53.2647C29.1201 62.7603 25.6186 64.9693 23.4425 64.8869L23.0469 65.5793C26.0143 69.3776 29.163 69.8655 30.3664 69.6348C31.949 72.1274 34.6857 73.8056 35.8561 74.3331H36.7958C35.2527 73.344 34.1253 69.9644 33.7544 68.3983C32.8248 66.8553 33.0867 63.4032 33.3338 61.8701L33.9273 61.2271L34.323 65.5793C35.589 70.7228 37.5542 72.8989 38.3784 73.344C36.8749 68.9127 37.752 67.2443 38.3784 66.9641C38.774 72.978 42.7965 77.416 44.7583 78.8831H45.7474C50.97 75.7179 52.4075 70.0139 52.4735 67.5576L53.1659 66.9641C53.8385 68.9028 53.1824 72.0252 52.7702 73.344L53.1659 73.7396C57.1224 69.3083 57.4192 62.9581 57.073 60.3369L57.6664 60.5348C60.0799 64.1352 59.2985 69.4864 58.6061 71.7119C59.5952 71.435 60.6338 69.6513 61.0295 68.794L62.0186 68.3983C64.709 67.3697 65.6124 65.1013 65.7279 64.0956C63.8287 62.4339 64.1452 58.5894 64.5409 56.875Z" fill="white"/>
<path d="M37.2905 50.9896H36.4992L35.1144 55.7374L33.334 57.5179C35.2727 57.6366 36.7794 56.9079 37.2905 56.5288L37.6367 55.7374C38.3093 52.0579 37.6862 51.0391 37.2905 50.9896Z" fill="white"/>
<path d="M45.7474 64.6397V69.0908C45.2331 69.6447 42.0382 66.7168 40.505 65.1837C39.7137 64.8672 38.0322 61.6888 37.2903 60.1391C37.0134 59.2687 36.8452 59.7764 36.7958 60.1391L37.0431 61.5239L36.499 61.8701L36.1528 61.2272C35.6385 57.7454 37.4222 57.6663 38.3784 58.062C39.6445 59.0502 43.4889 61.4411 45.2528 62.513H45.7474L46.3903 62.2658L51.88 58.4576C53.3835 57.5872 54.6496 58.3587 55.0947 58.8533L55.342 61.5239L54.7979 61.8701C53.8088 61.3558 54.2539 60.5018 54.6001 60.1391L54.0066 59.8424C52.701 64.155 48.6159 67.3433 46.7365 68.3984C46.697 67.4092 47.4784 66.5355 47.874 66.2223C50.5645 64.4814 52.0613 61.2437 52.4735 59.8424H51.88C46.4684 63.1263 45.5367 64.4089 45.7474 64.6397Z" fill="white"/>
<path d="M70.8715 51.0886C71.2276 48.4773 69.4372 47.6266 68.4976 47.5277C69.7636 43.0568 71.8606 42.7634 72.7508 43.1755C74.2543 47.1321 70.5418 53.9571 68.4976 56.875V53.9571C70.2384 53.1262 70.8055 51.6986 70.8715 51.0886Z" stroke="white" stroke-width="0.098913"/>
<path d="M81.1584 41.2962C80.5254 40.584 77.7624 39.3839 76.4601 38.8728C77.8844 47.3398 71.7452 58.1608 68.4976 62.513C70.6341 62.3943 76.1468 55.9353 78.6361 52.7206C77.7261 56.6771 73.3772 62.7108 71.3166 65.2331C73.5718 65.9057 77.8943 56.9079 79.7736 52.325C80.499 48.9454 81.7915 42.0083 81.1584 41.2962Z" stroke="white" stroke-width="0.098913"/>
<path d="M84.5212 45.6483L82.3945 44.5603C81.9198 51.6029 77.9435 59.628 76.0146 62.7603C77.9138 61.059 81.4549 56.4464 82.988 54.3527C82.8298 55.6583 79.7568 61.392 78.2402 64.0956C83.5419 59.4269 84.6366 49.8522 84.5212 45.6483Z" stroke="white" stroke-width="0.098913"/>
<path d="M88.3291 52.325L85.5596 51.0886C85.5596 51.326 84.8672 54.2209 84.521 55.6386C85.55 55.876 86.961 56.5618 87.5378 56.875L88.3291 52.325Z" stroke="white" stroke-width="0.098913"/>
<path d="M62.0185 55.7375C60.9898 52.4536 58.1609 52.7206 56.875 53.2647C57.1915 54.6494 60.6666 57.7652 62.3647 59.15C62.6779 59.3807 63.0472 59.0214 62.0185 55.7375Z" stroke="white" stroke-width="0.098913"/>
<path d="M64.5409 56.875L63.0572 56.5288C64.1255 60.7623 62.3483 65.6453 61.3262 67.5576C61.2471 59.2489 57.7654 58.029 56.0344 58.4576C56.4696 61.5832 55.3914 62.9252 54.798 63.2054L54.0067 62.513L53.6605 62.9087C53.8187 63.7395 52.0449 65.7277 51.1382 66.6179L50.792 67.5576C51.0294 71.2767 47.7257 75.3388 46.0442 76.9049L45.7474 76.3114C45.7474 73.5023 45.4177 72.0746 45.2529 71.7119L40.505 66.9641C38.7642 65.8167 37.6365 63.7824 37.2904 62.9087L36.7958 63.2054H36.1529C34.6889 62.4932 34.8505 59.7435 35.1143 58.4576C32.7008 58.7741 32.2293 58.3257 32.2952 58.0619C33.5613 56.0837 34.1746 54.3032 34.323 53.6603C33.9273 52.3151 31.5205 52.8361 30.3664 53.2647C27.9925 56.1529 28.4871 60.8975 29.0311 62.9087C29.3081 61.3261 30.5972 59.7435 31.2072 59.15L31.5534 59.5456C30.3664 63.2252 29.9708 66.6508 29.9213 67.9038C26.4 62.9581 27.8607 55.688 29.0311 52.6712C26.855 52.1964 25.9154 52.869 25.7175 53.2647C29.1201 62.7603 25.6186 64.9693 23.4425 64.8869L23.0469 65.5793C26.0143 69.3776 29.163 69.8655 30.3664 69.6348C31.949 72.1274 34.6857 73.8056 35.8561 74.3331H36.7958C35.2527 73.344 34.1253 69.9644 33.7544 68.3983C32.8248 66.8553 33.0867 63.4032 33.3338 61.8701L33.9273 61.2271L34.323 65.5793C35.589 70.7228 37.5542 72.8989 38.3784 73.344C36.8749 68.9127 37.752 67.2443 38.3784 66.9641C38.774 72.978 42.7965 77.416 44.7583 78.8831H45.7474C50.97 75.7179 52.4075 70.0139 52.4735 67.5576L53.1659 66.9641C53.8385 68.9028 53.1824 72.0252 52.7702 73.344L53.1659 73.7396C57.1224 69.3083 57.4192 62.9581 57.073 60.3369L57.6664 60.5348C60.0799 64.1352 59.2985 69.4864 58.6061 71.7119C59.5952 71.435 60.6338 69.6513 61.0295 68.794L62.0186 68.3983C64.709 67.3697 65.6124 65.1013 65.7279 64.0956C63.8287 62.4339 64.1452 58.5894 64.5409 56.875Z" stroke="white" stroke-width="0.098913"/>
<path d="M37.2905 50.9896H36.4992L35.1144 55.7374L33.334 57.5179C35.2727 57.6366 36.7794 56.9079 37.2905 56.5288L37.6367 55.7374C38.3093 52.0579 37.6862 51.0391 37.2905 50.9896Z" stroke="white" stroke-width="0.098913"/>
<path d="M45.7474 64.6397V69.0908C45.2331 69.6447 42.0382 66.7168 40.505 65.1837C39.7137 64.8672 38.0322 61.6888 37.2903 60.1391C37.0134 59.2687 36.8452 59.7764 36.7958 60.1391L37.0431 61.5239L36.499 61.8701L36.1528 61.2272C35.6385 57.7454 37.4222 57.6663 38.3784 58.062C39.6445 59.0502 43.4889 61.4411 45.2528 62.513H45.7474L46.3903 62.2658L51.88 58.4576C53.3835 57.5872 54.6496 58.3587 55.0947 58.8533L55.342 61.5239L54.7979 61.8701C53.8088 61.3558 54.2539 60.5018 54.6001 60.1391L54.0066 59.8424C52.701 64.155 48.6159 67.3433 46.7365 68.3984C46.697 67.4092 47.4784 66.5355 47.874 66.2223C50.5645 64.4814 52.0613 61.2437 52.4735 59.8424H51.88C46.4684 63.1263 45.5367 64.4089 45.7474 64.6397Z" stroke="white" stroke-width="0.098913"/>
<path d="M40.6039 55.1935C39.773 55.2726 39.3345 54.1054 39.2191 53.512C38.7839 53.6307 38.8399 55.177 38.9223 55.9353C39.6741 57.1223 43.7196 58.7049 45.6484 59.3478L45.5001 56.9739L48.1212 56.8255C49.4269 56.1925 51.5997 55.9683 52.5229 55.9353L52.2756 55.1935L52.5229 54.2044L52.2756 53.8582C51.4843 54.689 50.5281 55.0946 50.149 55.1935C45.8759 56.143 42.0052 55.5891 40.6039 55.1935Z" fill="white"/>
<path d="M55.1439 50.8907H53.7591C53.2448 50.7325 53.5448 54.5176 53.7591 56.4299C55.8956 57.9729 57.287 57.7652 57.7156 57.4685C55.2626 55.4902 54.979 52.259 55.1439 50.8907Z" fill="white"/>
<path d="M52.0285 49.3081L51.6328 49.9511C56.0246 50.228 64.9366 51.9128 68.8437 52.7206C69.9119 51.1776 69.7504 49.6049 69.5361 49.0114C64.9069 47.1123 56.9576 46.4726 53.5616 46.3902L52.523 48.1212C61.7022 48.7938 65.2499 50.3467 65.8763 51.0391C63.9772 50.4852 55.8531 49.6543 52.0285 49.3081Z" fill="white"/>
<path d="M38.576 48.0717L37.6363 46.2913C31.3454 46.0935 24.2006 48.0552 21.4146 49.0609C21.4146 51.87 22.4366 52.6712 22.9477 52.7207C24.3721 51.6128 34.6524 50.4786 39.6145 50.05L38.9222 49.2587C34.7282 49.5752 28.3714 50.5116 25.7173 50.9402L24.7281 50.7919C25.4007 49.9214 34.2403 48.6158 38.576 48.0717Z" fill="white"/>
<path d="M22.6015 53.8087C17.8933 49.8126 21.0024 47.7915 23.1456 47.2804C19.3077 40.7126 18.0845 42.3348 17.9526 43.9669C18.5461 51.8008 21.3981 55.9353 22.7499 57.0234C23.0269 56.3508 22.7664 54.6 22.6015 53.8087Z" fill="white"/>
<path d="M14.7383 38.9717C14.4614 38.6156 11.3918 40.406 9.8916 41.3456C9.8916 56.6178 16.6177 63.7 19.9807 65.332C14.5207 59.4764 12.7601 54.1219 12.5623 52.1766C15.2131 56.8849 20.162 60.9964 22.3052 62.4636C12.4633 47.8244 15.0845 39.4168 14.7383 38.9717Z" fill="white"/>
<path d="M8.85243 44.6097L6.47852 45.8462C7.38852 58.9818 11.3418 63.3208 13.2046 63.8483C8.93156 57.8344 8.52272 55.144 8.85243 54.5505C11.5033 59.6149 14.5729 62.1339 15.7763 62.7603C10.1976 55.7177 8.83594 47.7255 8.85243 44.6097Z" fill="white"/>
<path d="M5.88557 50.9402L2.86872 52.1766C2.47307 53.6801 3.26437 56.0342 3.70948 57.0233C4.1447 57.0233 6.06691 55.9353 6.97361 55.3913C6.38013 55.1934 6.00097 52.3415 5.88557 50.9402Z" fill="white"/>
<path d="M40.6039 55.1935C39.773 55.2726 39.3345 54.1054 39.2191 53.512C38.7839 53.6307 38.8399 55.177 38.9223 55.9353C39.6741 57.1223 43.7196 58.7049 45.6484 59.3478L45.5001 56.9739L48.1212 56.8255C49.4269 56.1925 51.5997 55.9683 52.5229 55.9353L52.2756 55.1935L52.5229 54.2044L52.2756 53.8582C51.4843 54.689 50.5281 55.0946 50.149 55.1935C45.8759 56.143 42.0052 55.5891 40.6039 55.1935Z" stroke="white" stroke-width="0.098913"/>
<path d="M55.1439 50.8907H53.7591C53.2448 50.7325 53.5448 54.5176 53.7591 56.4299C55.8956 57.9729 57.287 57.7652 57.7156 57.4685C55.2626 55.4902 54.979 52.259 55.1439 50.8907Z" stroke="white" stroke-width="0.098913"/>
<path d="M52.0285 49.3081L51.6328 49.9511C56.0246 50.228 64.9366 51.9128 68.8437 52.7206C69.9119 51.1776 69.7504 49.6049 69.5361 49.0114C64.9069 47.1123 56.9576 46.4726 53.5616 46.3902L52.523 48.1212C61.7022 48.7938 65.2499 50.3467 65.8763 51.0391C63.9772 50.4852 55.8531 49.6543 52.0285 49.3081Z" stroke="white" stroke-width="0.098913"/>
<path d="M38.576 48.0717L37.6363 46.2913C31.3454 46.0935 24.2006 48.0552 21.4146 49.0609C21.4146 51.87 22.4366 52.6712 22.9477 52.7207C24.3721 51.6128 34.6524 50.4786 39.6145 50.05L38.9222 49.2587C34.7282 49.5752 28.3714 50.5116 25.7173 50.9402L24.7281 50.7919C25.4007 49.9214 34.2403 48.6158 38.576 48.0717Z" stroke="white" stroke-width="0.098913"/>
<path d="M22.6015 53.8087C17.8933 49.8126 21.0024 47.7915 23.1456 47.2804C19.3077 40.7126 18.0845 42.3348 17.9526 43.9669C18.5461 51.8008 21.3981 55.9353 22.7499 57.0234C23.0269 56.3508 22.7664 54.6 22.6015 53.8087Z" stroke="white" stroke-width="0.098913"/>
<path d="M14.7383 38.9717C14.4614 38.6156 11.3918 40.406 9.8916 41.3456C9.8916 56.6178 16.6177 63.7 19.9807 65.332C14.5207 59.4764 12.7601 54.1219 12.5623 52.1766C15.2131 56.8849 20.162 60.9964 22.3052 62.4636C12.4633 47.8244 15.0845 39.4168 14.7383 38.9717Z" stroke="white" stroke-width="0.098913"/>
<path d="M8.85243 44.6097L6.47852 45.8462C7.38852 58.9818 11.3418 63.3208 13.2046 63.8483C8.93156 57.8344 8.52272 55.144 8.85243 54.5505C11.5033 59.6149 14.5729 62.1339 15.7763 62.7603C10.1976 55.7177 8.83594 47.7255 8.85243 44.6097Z" stroke="white" stroke-width="0.098913"/>
<path d="M5.88557 50.9402L2.86872 52.1766C2.47307 53.6801 3.26437 56.0342 3.70948 57.0233C4.1447 57.0233 6.06691 55.9353 6.97361 55.3913C6.38013 55.1934 6.00097 52.3415 5.88557 50.9402Z" stroke="white" stroke-width="0.098913"/>
<path d="M25.6182 25.3712C24.5895 26.2416 21.9913 26.8219 20.8209 27.0032C19.9504 28.0715 19.0734 31.2071 18.7437 32.6413C18.4272 38.4574 19.9966 40.2081 20.8209 40.3565C20.3065 37.7452 22.354 34.125 23.4421 32.6413C22.0902 32.6084 19.624 32.4138 20.5736 31.8994C21.7605 31.2565 26.904 24.2831 25.6182 25.3712Z" fill="white"/>
<path d="M34.6689 44.4119L34.1743 45.3516C35.7965 45.7473 36.3339 45.1867 36.3999 44.857L34.6689 44.4119Z" fill="white"/>
<path d="M40.7029 44.8571C39.5951 44.8571 38.8565 45.3846 38.6257 45.6484C38.2301 47.1321 41.8899 50.4951 41.0491 48.9125C40.3765 47.6464 40.7689 46.7693 41.0491 46.4891L40.7029 44.8571Z" fill="white"/>
<path d="M44.8077 44.8571H41.6919L42.5327 45.8956L43.4723 45.3516L44.8077 45.6484C45.0055 45.3846 45.2824 44.8571 44.8077 44.8571Z" fill="white"/>
<path d="M48.9126 44.8571H46.4397L45.9946 45.3516L46.4397 45.8956L47.7751 45.6484H49.2588L48.9126 44.8571Z" fill="white"/>
<path d="M52.3744 45.6484C51.7018 44.7779 50.5116 44.7581 50.0005 44.8571C50.3961 45.6088 50.4621 47.8739 50.4456 48.9125C51.3688 48.1872 53.047 46.5188 52.3744 45.6484Z" fill="white"/>
<path d="M56.1825 44.4119L54.6494 44.857C54.0065 45.3021 56.8749 45.8956 57.0728 45.3516C57.231 44.9164 56.5453 44.5438 56.1825 44.4119Z" fill="white"/>
<path d="M41.6919 49.7038C43.1427 49.9676 46.7562 50.3369 49.6049 49.7038C48.3685 48.7147 45.0549 47.3299 41.6919 49.7038Z" fill="white"/>
<path d="M51.0392 53.7098C51.514 52.6415 51.4349 50.8578 51.336 50.0994L48.9126 53.2152V54.4021C49.4237 54.6165 50.5644 54.778 51.0392 53.7098Z" fill="white"/>
<path d="M46.687 54.9462L48.3685 54.6495L47.7751 53.7098C47.3003 52.9581 46.8519 53.5614 46.687 53.9571V54.9462Z" fill="white"/>
<path d="M46.4396 55.0451H45.0054V53.7098H45.9945L46.4396 55.0451Z" fill="white"/>
<path d="M42.5329 54.9462L42.5372 54.9464C42.6202 54.792 42.7171 54.6116 42.8296 54.4022C43.977 52.2657 44.4287 53.9405 44.5111 55.0451L42.5372 54.9464C41.7738 56.3672 42.1908 55.5856 42.5329 54.9462Z" fill="white"/>
<path d="M42.2358 52.869C41.7611 52.592 40.5214 50.9072 39.9608 50.0994C39.3674 50.7325 39.9114 52.935 40.2576 53.957L42.2358 54.6494C42.4337 54.1714 42.7106 53.1459 42.2358 52.869Z" fill="white"/>
<path d="M20.8209 27.0032C21.9913 26.8219 24.5895 26.2416 25.6182 25.3712C26.904 24.2831 21.7605 31.2565 20.5736 31.8994C19.624 32.4138 22.0902 32.6084 23.4421 32.6413C22.354 34.125 20.3065 37.7452 20.8209 40.3565C19.9966 40.2081 18.4272 38.4574 18.7437 32.6413C19.0734 31.2071 19.9504 28.0715 20.8209 27.0032ZM34.1741 45.3516L34.6687 44.4119L36.3997 44.8571C36.3337 45.1867 35.7963 45.7473 34.1741 45.3516ZM38.6252 45.6484C38.856 45.3846 39.5946 44.8571 40.7024 44.8571L41.0486 46.4891C40.7684 46.7693 40.376 47.6464 41.0486 48.9125C41.8893 50.4951 38.2296 47.1321 38.6252 45.6484ZM41.6915 44.8571C42.5323 44.8571 44.3325 44.8571 44.8073 44.8571C45.2821 44.8571 45.0051 45.3846 44.8073 45.6484L43.472 45.3516L42.5323 45.8956L41.6915 44.8571ZM46.4393 44.8571H48.9122L49.2584 45.6484H47.7747L46.4393 45.8956L45.9942 45.3516L46.4393 44.8571ZM50.0002 44.8571C50.5113 44.7581 51.7015 44.7779 52.3741 45.6484C53.0467 46.5188 51.3685 48.1872 50.4453 48.9125C50.4618 47.8739 50.3959 45.6088 50.0002 44.8571ZM54.6491 44.8571L56.1823 44.4119C56.545 44.5438 57.2308 44.9164 57.0725 45.3516C56.8747 45.8956 54.0062 45.3022 54.6491 44.8571ZM41.6915 49.7038C43.1423 49.9676 46.7559 50.3368 49.6046 49.7038C48.3682 48.7147 45.0546 47.3299 41.6915 49.7038ZM51.3355 50.0994C51.4345 50.8578 51.5136 52.6415 51.0388 53.7098C50.564 54.778 49.4233 54.6165 48.9122 54.4022V53.2152L51.3355 50.0994ZM48.3682 54.6494L46.6866 54.9462V53.9571C46.8515 53.5614 47.2999 52.958 47.7747 53.7098L48.3682 54.6494ZM45.0051 55.0451H46.4393L45.9942 53.7098H45.0051V55.0451ZM42.5323 54.9462L44.5105 55.0451C44.4282 53.9405 43.9764 52.2656 42.829 54.4022C41.6816 56.5387 42.1532 55.6551 42.5323 54.9462ZM39.9605 50.0994C40.5211 50.9073 41.7608 52.5921 42.2355 52.869C42.7103 53.146 42.4334 54.1714 42.2355 54.6494L40.2573 53.9571C39.9111 52.935 39.3671 50.7325 39.9605 50.0994Z" stroke="white" stroke-width="0.098913"/>
<path d="M36.054 28.3386C34.7483 30.396 36.598 31.3719 37.686 31.6027C35.3912 32.671 34.29 31.1576 34.0262 30.2674C33.4328 31.0587 34.4714 32.3116 35.0648 32.8391C34.2735 32.7995 34.0428 34.2734 34.0262 35.0152C33.4328 35.5691 32.0974 36.2022 31.504 36.4494V34.3228L32.9382 32.0478L31.504 32.4929C30.7918 31.5434 32.1634 29.3277 32.9382 28.3386L34.0262 28.8826L35.0648 27.6462L36.054 28.3386Z" fill="white" stroke="white" stroke-width="0.098913"/>
<path d="M27.5475 23.5908C30.9105 15.5195 35.1473 15.315 36.8453 16.2218C31.9392 17.29 31.8997 21.5796 32.4931 23.5908C31.3062 23.2347 31.57 26.146 31.8502 27.6462C31.8502 29.9014 27.3662 33.1359 25.1241 34.4712C25.1241 35.6186 28.652 33.9932 30.416 33.037C29.8225 37.9826 31.1249 39.1861 31.8502 39.1696C32.1635 41.2138 32.4635 45.4308 31.1578 45.9451C29.8522 46.4595 27.1518 46.5881 25.9649 46.5881C25.5692 42.8294 28.075 38.0321 29.3774 36.1033V35.2131C26.3704 37.6661 24.4977 42.0381 23.9372 43.9174C22.315 38.1805 24.0526 33.6799 25.1241 32.1468C28.9224 30.4059 30.2347 27.2671 30.416 25.9152C27.0925 30.2674 24.2174 31.0917 23.1953 30.9598C25.2131 29.0211 26.9375 25.2394 27.5475 23.5908Z" fill="white" stroke="white" stroke-width="0.098913"/>
<path d="M25.1242 22.5027C24.4911 22.4236 23.8054 19.7661 23.5416 18.4473C23.5416 20.109 19.1565 23.228 16.9639 24.5799C21.4644 26.657 25.9155 22.6016 25.1242 22.5027Z" fill="white" stroke="white" stroke-width="0.098913"/>
<path d="M59.1004 27.5473L59.6444 25.5196C63.1261 30.9796 65.4473 32.0808 66.1727 31.9489C67.6366 33.9272 68.1344 37.8177 68.2004 39.5158C67.5278 38.0519 65.3484 36.7297 64.3428 36.2517C59.8719 33.1656 61.9854 36.3176 63.6009 38.2794C64.9461 41.2072 65.2495 45.1703 65.233 46.7859L64.3428 46.3408C64.3428 45.1143 63.2877 42.9283 62.7602 41.9886C62.3249 39.3773 61.1281 38.9223 60.5841 39.0212C60.4357 39.4993 60.228 41.1973 60.5841 44.1647C60.9402 47.1321 59.7433 45.4011 59.1004 44.1647C58.6652 40.683 59.2817 39.285 59.6444 39.0212L60.5841 37.3397C61.0193 36.7858 60.7654 34.9328 60.5841 34.0756L61.1281 32.6908C64.7285 35.3812 65.3648 34.735 65.233 34.0756C62.6612 32.7699 60.073 29.1794 59.1004 27.5473Z" fill="white" stroke="white" stroke-width="0.098913"/>
<path d="M70.2284 26.9044H68.8931L71.4648 33.3832V35.1636L70.8219 40.1092L72.7012 37.7848C73.2551 34.6196 71.2835 29.2123 70.2284 26.9044Z" fill="white" stroke="white" stroke-width="0.098913"/>
<path d="M69.8328 23.9864C67.9733 22.9577 67.5744 20.2277 67.6073 18.9913C69.8625 22.0378 73.1959 24.1513 74.5807 24.8271C71.9694 25.4998 70.3274 24.5469 69.8328 23.9864Z" fill="white" stroke="white" stroke-width="0.098913"/>
<path d="M65.5794 27.6462C61.6229 16.4097 56.5123 15.2491 54.4517 16.0734C58.9621 17.8934 61.0459 22.3049 61.5239 24.2831C63.4844 29.9805 66.627 31.0422 67.9533 30.8609C66.7663 30.1091 65.8761 28.4045 65.5794 27.6462Z" fill="white" stroke="white" stroke-width="0.098913"/>
<path fill-rule="evenodd" clip-rule="evenodd" d="M58.2601 26.0636C58.8041 21.7114 51.3856 18.1505 47.7258 23.7391C47.2148 24.9755 46.0839 27.5275 45.6487 27.844C45.4726 27.972 45.1878 27.4215 44.754 26.5832C43.8473 24.8307 42.2897 21.8204 39.7139 21.1179C40.6536 20.7882 43.1561 21.0388 45.6487 24.6788C47.2807 21.9257 51.5538 16.7855 55.5894 18.2494C54.6003 16.8976 51.2274 15.9646 45.6487 23.0467C42.8791 18.2494 34.3825 13.284 33.4329 21.9092L35.8068 19.9804C34.422 22.3214 32.0086 26.8153 33.4329 26.0636C34.6199 25.2228 37.5378 24.659 39.7139 29.1299C40.3074 30.053 42.1175 31.6225 44.6101 30.5147C44.2804 31.6687 42.8395 33.4227 39.7139 31.2071C39.0544 31.2071 38.0324 31.7313 39.2193 33.8282C37.7521 33.2513 34.8276 32.6215 34.8671 34.7185C35.7244 34.9328 37.4587 35.4702 37.5378 35.9054C37.5649 36.0546 37.1606 36.029 36.589 35.9928C35.0763 35.8969 32.3919 35.7269 33.4329 38.5266C33.6473 37.7353 34.422 36.3901 35.8068 37.3397C34.2077 38.8399 32.1965 42.2952 36.9443 44.1152C37.6202 44.2801 39.4666 44.4021 41.4449 43.5712C42.5 43.4557 44.6101 43.1459 44.6101 42.8293C44.6101 42.7607 44.2911 42.607 43.8027 42.3718C41.4777 41.2519 35.3143 38.2831 41.4449 33.8282C40.5381 35.0647 39.2688 37.5672 41.4449 37.6859C42.5494 37.6529 44.8475 37.8342 45.2036 38.8234H46.2421C46.3411 38.4442 47.1126 37.6859 49.4074 37.6859C50.6603 37.6693 52.4143 36.8748 49.4074 33.8282L47.3796 31.7511L46.2421 30.8609L46.6873 30.5147C47.1983 30.7454 48.4578 31.1378 49.4074 30.8609C50.3569 30.5839 52.2099 28.0748 53.0177 26.8549C53.9408 25.9976 56.1236 24.6392 57.4688 26.0636C57.7326 26.3666 58.2601 26.791 58.2601 26.0636ZM45.6487 37.6859V33.0369C46.0048 32.4039 46.9511 32.5424 47.3796 32.6907L48.6161 34.7185C49.9217 36.0637 49.1601 36.7297 48.6161 36.8946C46.9939 37.1715 46.3576 37.7353 46.2421 37.9826C46.0443 38.0321 45.6487 38.0419 45.6487 37.6859Z" fill="white"/>
<path d="M45.6487 33.0369C45.6487 34.4382 45.6487 37.3298 45.6487 37.6859M45.6487 33.0369C46.0048 32.4039 46.9511 32.5424 47.3796 32.6907L48.6161 34.7185C49.9217 36.0637 49.1601 36.7297 48.6161 36.8946C46.9939 37.1715 46.3576 37.7353 46.2421 37.9826C46.0443 38.0321 45.6487 38.0419 45.6487 37.6859M45.6487 33.0369V37.6859M58.2601 26.0636C58.8041 21.7114 51.3856 18.1505 47.7258 23.7391C47.2148 24.9755 46.0839 27.5275 45.6487 27.844C45.4726 27.972 45.1878 27.4215 44.754 26.5832C43.8473 24.8307 42.2897 21.8204 39.7139 21.1179C40.6536 20.7882 43.1561 21.0388 45.6487 24.6788C47.2807 21.9257 51.5538 16.7855 55.5894 18.2494C54.6003 16.8976 51.2274 15.9646 45.6487 23.0467C42.8791 18.2494 34.3825 13.284 33.4329 21.9092L35.8068 19.9804C34.422 22.3214 32.0086 26.8153 33.4329 26.0636C34.6199 25.2228 37.5378 24.659 39.7139 29.1299C40.3074 30.053 42.1175 31.6225 44.6101 30.5147C44.2804 31.6687 42.8395 33.4227 39.7139 31.2071C39.0544 31.2071 38.0324 31.7313 39.2193 33.8282C37.7521 33.2513 34.8276 32.6215 34.8671 34.7185C35.7244 34.9328 37.4587 35.4702 37.5378 35.9054C37.5649 36.0546 37.1606 36.029 36.589 35.9928C35.0763 35.8969 32.3919 35.7269 33.4329 38.5266C33.6473 37.7353 34.422 36.3901 35.8068 37.3397C34.2077 38.8399 32.1965 42.2952 36.9443 44.1152C37.6202 44.2801 39.4666 44.4021 41.4449 43.5712C42.5 43.4557 44.6101 43.1459 44.6101 42.8293C44.6101 42.7607 44.2911 42.607 43.8027 42.3718C41.4777 41.2519 35.3143 38.2831 41.4449 33.8282C40.5381 35.0647 39.2688 37.5672 41.4449 37.6859C42.5494 37.6529 44.8475 37.8342 45.2036 38.8234H46.2421C46.3411 38.4442 47.1126 37.6859 49.4074 37.6859C50.6603 37.6693 52.4143 36.8748 49.4074 33.8282L47.3796 31.7511L46.2421 30.8609L46.6873 30.5147C47.1983 30.7454 48.4578 31.1378 49.4074 30.8609C50.3569 30.5839 52.2099 28.0748 53.0177 26.8549C53.9408 25.9976 56.1236 24.6392 57.4688 26.0636C57.7326 26.3666 58.2601 26.791 58.2601 26.0636Z" stroke="white" stroke-width="0.098913"/>
<path d="M53.6606 31.5533C55.1246 32.6611 56.4797 31.3884 56.9742 30.6136C57.5281 31.1675 56.7435 32.1633 56.2818 32.5918C55.7279 33.4227 57.205 34.059 58.0128 34.2734C57.5776 31.6225 57.8315 29.7399 58.0128 29.1299C55.718 26.6373 55.0784 27.6957 55.0454 28.5364C56.1533 29.8816 54.5838 31.1082 53.6606 31.5533Z" fill="#FFFCFC" stroke="white" stroke-width="0.098913"/>
<path fill-rule="evenodd" clip-rule="evenodd" d="M51.9293 34.7185C52.1766 34.5536 52.9877 34.3228 54.2538 34.7185L53.5119 36.2022C55.21 35.7241 58.606 35.5197 58.606 38.5266C57.8147 37.7141 56.0342 36.2796 55.2429 37.0429C56.4793 38.065 58.5367 40.5444 56.875 42.2853C56.1497 43.3568 54.0362 45.2725 51.3853 44.3625C50.8413 43.9834 49.1795 43.225 46.8848 43.225V42.2853C48.6817 41.6753 52.2063 40.0697 51.9293 38.5266C52.1106 37.8177 52.3645 36.0637 51.9293 34.7185ZM55.2429 42.2853C57.6168 38.1705 54.5505 37.7353 52.7206 38.0321C52.1373 41.6007 49.8874 41.8125 48.7296 41.9214C48.2186 41.9695 47.9203 41.9976 48.0717 42.2853C48.4674 43.0371 49.9181 43.225 50.594 43.225C53.9966 44.4119 55.1111 43.0931 55.2429 42.2853Z" fill="white" stroke="white" stroke-width="0.098913"/>
<path d="M37.1914 29.8223C37.3233 29.0145 37.9234 27.8836 39.2686 29.8223C38.8894 30.1685 37.9431 30.6532 37.1914 29.8223Z" fill="white"/>
<path d="M52.2754 29.8223C52.3743 29.1958 52.8293 28.2001 53.858 29.2288C53.6767 30.0036 53.1063 31.207 52.2754 29.8223Z" fill="white"/>
<path d="M37.1914 29.8223C37.3233 29.0145 37.9234 27.8836 39.2686 29.8223C38.8894 30.1685 37.9431 30.6532 37.1914 29.8223Z" stroke="white" stroke-width="0.098913"/>
<path d="M52.2754 29.8223C52.3743 29.1958 52.8293 28.2001 53.858 29.2288C53.6767 30.0036 53.1063 31.207 52.2754 29.8223Z" stroke="white" stroke-width="0.098913"/>
<path d="M45.6978 84.7685L52.1271 78.1413C54.1219 77.9435 58.7741 76.44 61.4249 72.0087C62.9086 72.0252 66.8454 71.1383 70.7228 67.4587C71.8932 67.2444 74.4221 66.519 75.1738 65.3321C76.5586 66.3212 79.9118 67.1026 82.2461 62.3152L86.0048 63.1065C87.538 61.8372 90.5449 57.7356 90.3075 51.4843L86.8456 49.8027C86.8456 48.8136 86.8456 46.3705 86.8456 44.5109L83.2352 43.1261V40.3565L75.1738 36.4495C75.3387 34.8009 75.1738 30.7224 73.1956 27.5968C74.1847 27.3989 76.5191 26.4494 77.9434 24.2337C75.042 23.7062 68.9819 20.1981 67.9532 10.3859C65.81 5.50619 58.3586 -2.91791 45.6978 2.4234" stroke="white" stroke-width="1.28587"/>
<path d="M45.3154 84.7495L38.8861 78.1223C36.8913 77.9245 32.2391 76.421 29.5882 71.9897C28.1045 72.0062 24.1678 71.1193 20.2904 67.4397C19.12 67.2253 16.5911 66.5 15.8393 65.3131C14.4545 66.3022 11.1014 67.0836 8.76707 62.2962L5.00837 63.0875C3.47522 61.8182 0.46826 57.7165 0.705651 51.4652L4.16761 49.7837C4.16761 48.7946 4.16761 46.3514 4.16761 44.4919L7.77794 43.1071V40.3375L15.8393 36.4305C15.6744 34.7819 15.8393 30.7034 17.8176 27.5777C16.8285 27.3799 14.4941 26.4303 13.0698 24.2147C15.9712 23.6871 22.0313 20.179 23.06 10.3669C25.2031 5.48715 32.6545 -2.93695 45.3154 2.40435" stroke="white" stroke-width="1.28587"/>
<path d="M43.9175 83.1364L45.6979 85.6092" stroke="white" stroke-width="1.28587"/>
<path d="M43.6206 1.87933L45.9945 3.01683" stroke="white" stroke-width="1.28587"/>
<path d="M58.9027 15.381L56.5288 14.0951C59.6149 10.653 63.9473 10.9134 65.7277 11.4739C67.3103 14.5996 65.6288 19.7991 64.5902 22.0082L63.7495 20.2277C64.5902 18.1835 65.7673 13.927 63.7495 13.2544C61.7316 12.5818 59.6775 14.3919 58.9027 15.381Z" fill="white" stroke="white" stroke-width="0.791304"/>
<path d="M32.3009 15.32L34.6748 14.0341C31.5887 10.5919 27.2563 10.8524 25.4759 11.4129C23.8933 14.5385 25.5748 19.7381 26.6134 21.9471L27.4541 20.1667C26.6134 18.1225 25.4363 13.8659 27.4541 13.1933C29.472 12.5207 31.526 14.3308 32.3009 15.32Z" fill="white" stroke="white" stroke-width="0.791304"/>
<path d="M61.969 6.47879C61.1777 8.69444 56.7266 12.1168 54.6 13.5511C53.9273 14.0199 57.386 10.0536 59.1994 8.01194C52.4239 9.5451 49.0608 17.4581 49.3081 16.469C49.5554 15.4799 51.138 11.0782 50.1489 12.0179C49.3576 12.7697 47.8079 15.2986 47.132 16.469C47.3694 13.4621 46.2747 9.57806 45.6978 8.01194C44.0336 10.9524 44.1122 15.0432 44.3988 17.0658C44.4318 17.2028 44.4531 17.334 44.4614 17.4581C44.4398 17.3382 44.4188 17.207 44.3988 17.0658C43.9591 15.2381 41.4469 12.3665 40.1587 11.0782C41.0291 12.9774 41.6424 15.4634 41.8402 16.469C37.0528 8.12075 32.4269 7.81412 30.7125 8.70434C33.7985 9.61433 35.8889 12.3147 36.5483 13.5511C33.8975 9.87151 28.322 9.61104 25.8657 9.94075C32.9875 0.722053 40.1092 7.48441 42.7799 12.0179C41.0785 6.91401 37.9166 4.71485 36.5483 4.25325C39.3179 2.47281 43.8019 4.07191 45.6978 5.09401C49.6939 2.75966 53.2976 3.56086 54.6 4.25325C48.7047 7.45803 49.1763 10.1386 50.1489 11.0782C53.235 3.63999 59.3148 4.91266 61.969 6.47879Z" fill="white"/>
<path d="M54.6 13.5511C56.7266 12.1168 61.1777 8.69444 61.969 6.47879C59.3148 4.91266 53.235 3.63999 50.1489 11.0782C49.1763 10.1386 48.7047 7.45803 54.6 4.25325C53.2976 3.56086 49.6939 2.75966 45.6978 5.09401C43.8019 4.07191 39.3179 2.47281 36.5483 4.25325C37.9166 4.71485 41.0785 6.91401 42.7799 12.0179C40.1092 7.48441 32.9875 0.722053 25.8657 9.94075C28.322 9.61104 33.8975 9.87151 36.5483 13.5511C35.8889 12.3147 33.7985 9.61433 30.7125 8.70434C32.4269 7.81412 37.0528 8.12075 41.8402 16.469C41.6424 15.4634 41.0291 12.9774 40.1587 11.0782C41.5434 12.463 44.3427 15.6777 44.4614 17.4581C44.1317 15.6201 43.9174 11.1578 45.6978 8.01194C46.2747 9.57806 47.3694 13.4621 47.132 16.469C47.8079 15.2986 49.3576 12.7697 50.1489 12.0179C51.138 11.0782 49.5554 15.4799 49.3081 16.469C49.0608 17.4581 52.4239 9.5451 59.1994 8.01194C57.386 10.0536 53.9273 14.0199 54.6 13.5511Z" stroke="white" stroke-width="0.296739"/>
</svg>
