<svg width="34" height="34" viewBox="0 0 34 34" fill="none" xmlns="http://www.w3.org/2000/svg">
<path d="M4 7.54167C4 19.6689 13.8311 29.5 25.9583 29.5C26.5054 29.5 27.0479 29.48 27.5851 29.4406C28.2015 29.3954 28.5096 29.3729 28.7903 29.2114C29.0226 29.0777 29.2429 28.8405 29.3593 28.599C29.5 28.3074 29.5 27.9673 29.5 27.2872V23.296C29.5 22.7239 29.5 22.4379 29.4058 22.1928C29.3228 21.9762 29.1876 21.7834 29.0125 21.6313C28.8143 21.459 28.5454 21.3612 28.008 21.1657L23.465 19.5138C22.8395 19.2864 22.5267 19.1726 22.2301 19.1919C21.9684 19.2089 21.7167 19.2983 21.5028 19.4499C21.2602 19.6217 21.0891 19.907 20.7467 20.4778L19.5833 22.4167C15.8293 20.7165 12.786 17.6693 11.0833 13.9167L13.0222 12.7533C13.5929 12.4109 13.8782 12.2397 14.0501 11.9972C14.2017 11.7833 14.2911 11.5315 14.3081 11.2699C14.3274 10.9732 14.2136 10.6605 13.9862 10.0351L12.3342 5.49205C12.1387 4.95449 12.041 4.68571 11.8688 4.48747C11.7166 4.31236 11.5238 4.1773 11.3072 4.09414C11.062 4 10.776 4 10.204 4H6.21285C5.53266 4 5.19256 4 4.90097 4.1406C4.65946 4.25707 4.42237 4.47743 4.28858 4.70979C4.12705 4.99035 4.10448 5.29854 4.05934 5.91495C4.02002 6.45205 4 6.99452 4 7.54167Z" stroke="#FF7272" stroke-width="2.83333" stroke-linecap="round" stroke-linejoin="round"/>
</svg>
