<svg width="1029" height="878" viewBox="0 0 1029 878" fill="none" xmlns="http://www.w3.org/2000/svg">
<g filter="url(#filter0_d_92_165)">
<path d="M273 386.977H756.262" stroke="white" stroke-width="3.82781"/>
<path d="M340.353 413.603L323.756 462.46H314.784L298.561 413.603H306.075L316.616 446.536L319.607 456.18L322.672 446.536L333.251 413.603H340.353ZM381.151 419.21H369.899V413.603H399.131V419.21H387.879V456.778H399.131V462.46H369.899V456.778H381.151V419.21ZM465.722 460.629C461.809 462.248 457.71 463.058 453.423 463.058C446.52 463.058 441.212 461.002 437.499 456.89C433.811 452.754 431.966 446.648 431.966 438.574C431.966 434.661 432.477 431.122 433.499 427.958C434.521 424.793 435.979 422.114 437.873 419.921C439.767 417.703 442.059 415.996 444.751 414.799C447.442 413.603 450.458 413.005 453.797 413.005C456.065 413.005 458.171 413.205 460.114 413.603C462.058 413.977 463.927 414.563 465.722 415.36V421.902C463.952 420.93 462.12 420.195 460.226 419.696C458.333 419.173 456.264 418.911 454.021 418.911C451.729 418.911 449.648 419.347 447.779 420.22C445.934 421.067 444.364 422.313 443.069 423.958C441.773 425.578 440.776 427.571 440.078 429.939C439.38 432.281 439.031 434.96 439.031 437.976C439.031 444.305 440.315 449.078 442.882 452.293C445.449 455.507 449.212 457.115 454.171 457.115C456.264 457.115 458.27 456.878 460.189 456.404C462.108 455.906 463.952 455.221 465.722 454.349V460.629ZM532.462 419.285H517.995V462.46H511.267V419.285H496.8V413.603H532.462V419.285ZM598.678 437.714C598.678 442.1 598.155 445.888 597.108 449.078C596.086 452.268 594.691 454.909 592.922 457.003C591.177 459.071 589.121 460.616 586.754 461.638C584.411 462.635 581.932 463.133 579.315 463.133C576.175 463.133 573.434 462.572 571.091 461.451C568.773 460.305 566.842 458.66 565.297 456.517C563.777 454.373 562.643 451.769 561.895 448.704C561.148 445.614 560.774 442.137 560.774 438.275C560.774 433.939 561.285 430.175 562.307 426.986C563.328 423.796 564.711 421.167 566.456 419.098C568.225 417.005 570.281 415.46 572.624 414.463C574.966 413.441 577.446 412.93 580.063 412.93C583.203 412.93 585.931 413.504 588.249 414.65C590.591 415.796 592.535 417.441 594.08 419.584C595.625 421.702 596.772 424.294 597.519 427.359C598.292 430.425 598.678 433.876 598.678 437.714ZM591.763 438.2C591.763 435.334 591.538 432.717 591.09 430.35C590.666 427.958 589.968 425.902 588.997 424.182C588.025 422.463 586.766 421.129 585.221 420.182C583.701 419.235 581.857 418.762 579.689 418.762C577.595 418.762 575.789 419.273 574.268 420.294C572.773 421.291 571.54 422.662 570.568 424.406C569.596 426.126 568.873 428.157 568.4 430.499C567.926 432.817 567.689 435.284 567.689 437.901C567.689 440.792 567.914 443.433 568.362 445.826C568.811 448.193 569.509 450.237 570.456 451.956C571.427 453.651 572.674 454.972 574.194 455.919C575.714 456.866 577.546 457.339 579.689 457.339C581.782 457.339 583.589 456.841 585.109 455.844C586.629 454.822 587.875 453.451 588.847 451.732C589.844 449.987 590.579 447.956 591.053 445.639C591.526 443.321 591.763 440.842 591.763 438.2ZM662.989 462.46H655.475L648.186 446.835C647.637 445.639 647.077 444.654 646.503 443.882C645.93 443.084 645.307 442.461 644.634 442.013C643.987 441.539 643.264 441.203 642.466 441.004C641.694 440.804 640.822 440.704 639.85 440.704H636.71V462.46H630.056V413.603H643.139C645.98 413.603 648.422 413.915 650.466 414.538C652.509 415.161 654.179 416.033 655.475 417.154C656.796 418.276 657.755 419.634 658.353 421.229C658.976 422.799 659.288 424.543 659.288 426.462C659.288 427.982 659.064 429.428 658.615 430.798C658.166 432.144 657.494 433.378 656.596 434.499C655.724 435.596 654.628 436.555 653.307 437.378C652.011 438.175 650.516 438.773 648.821 439.172C650.192 439.645 651.351 440.48 652.298 441.676C653.269 442.848 654.254 444.418 655.251 446.386L662.989 462.46ZM652.335 427.023C652.335 424.406 651.513 422.45 649.868 421.154C648.248 419.858 645.955 419.21 642.99 419.21H636.71V435.359H642.093C643.663 435.359 645.071 435.185 646.317 434.836C647.588 434.462 648.659 433.926 649.531 433.228C650.428 432.506 651.114 431.633 651.587 430.612C652.086 429.565 652.335 428.369 652.335 427.023ZM730.85 413.603L713.169 445.003V462.46H706.44V444.854L688.759 413.603H696.796L706.515 431.471L710.104 438.649L713.393 432.144L723.224 413.603H730.85Z" fill="white"/>
<path d="M348.599 516H382.092" stroke="white" stroke-width="3.82781"/>
<path d="M400.97 522.021C400.211 522.327 399.474 522.554 398.759 522.702C398.052 522.85 397.315 522.924 396.547 522.924C395.318 522.924 394.227 522.745 393.277 522.388C392.335 522.021 391.537 521.481 390.882 520.765C390.237 520.05 389.744 519.165 389.404 518.11C389.073 517.045 388.907 515.811 388.907 514.407C388.907 512.968 389.09 511.69 389.456 510.574C389.823 509.448 390.346 508.502 391.026 507.734C391.707 506.958 392.531 506.369 393.499 505.968C394.476 505.558 395.571 505.353 396.783 505.353C397.175 505.353 397.542 505.362 397.882 505.379C398.231 505.397 398.571 505.432 398.902 505.484C399.234 505.528 399.57 505.589 399.91 505.667C400.25 505.746 400.603 505.846 400.97 505.968V509.161C400.228 508.812 399.522 508.563 398.85 508.415C398.179 508.267 397.568 508.192 397.018 508.192C396.207 508.192 395.514 508.341 394.938 508.637C394.363 508.925 393.887 509.335 393.512 509.867C393.146 510.39 392.875 511.018 392.701 511.751C392.527 512.475 392.439 513.273 392.439 514.145C392.439 515.07 392.527 515.898 392.701 516.631C392.884 517.355 393.163 517.97 393.538 518.476C393.913 518.982 394.393 519.37 394.977 519.64C395.562 519.902 396.255 520.033 397.058 520.033C397.346 520.033 397.655 520.007 397.987 519.954C398.327 519.893 398.667 519.819 399.007 519.732C399.356 519.636 399.696 519.527 400.028 519.405C400.368 519.274 400.682 519.143 400.97 519.012V522.021ZM415.287 522.689L412.88 517.194C412.653 516.67 412.335 516.278 411.925 516.016C411.523 515.746 411.048 515.611 410.499 515.611H409.884V522.689H406.665V505.589H411.65C412.592 505.589 413.447 505.672 414.214 505.837C414.982 505.994 415.636 506.26 416.177 506.635C416.717 507.011 417.132 507.499 417.42 508.101C417.716 508.703 417.864 509.44 417.864 510.312C417.864 510.94 417.773 511.498 417.59 511.987C417.407 512.475 417.149 512.898 416.818 513.256C416.486 513.605 416.089 513.888 415.627 514.106C415.174 514.324 414.676 514.477 414.136 514.564C414.554 514.651 414.938 514.891 415.287 515.284C415.636 515.667 415.985 516.226 416.334 516.958L419.068 522.689H415.287ZM414.489 510.626C414.489 509.789 414.223 509.187 413.691 508.82C413.159 508.454 412.361 508.271 411.297 508.271H409.884V513.099H411.192C411.689 513.099 412.138 513.046 412.54 512.942C412.949 512.837 413.298 512.68 413.586 512.471C413.874 512.261 414.096 512.004 414.253 511.699C414.41 511.385 414.489 511.027 414.489 510.626ZM436.369 514.067C436.369 515.619 436.185 516.958 435.819 518.083C435.461 519.209 434.964 520.133 434.328 520.857C433.7 521.581 432.958 522.117 432.103 522.466C431.257 522.815 430.35 522.99 429.382 522.99C427.132 522.99 425.44 522.244 424.306 520.752C423.172 519.252 422.605 517.076 422.605 514.224C422.605 512.671 422.784 511.332 423.141 510.207C423.508 509.082 424.005 508.157 424.633 507.434C425.269 506.71 426.011 506.173 426.857 505.824C427.712 505.475 428.623 505.301 429.591 505.301C431.842 505.301 433.534 506.047 434.668 507.538C435.802 509.03 436.369 511.206 436.369 514.067ZM432.967 514.224C432.967 512.2 432.696 510.691 432.156 509.697C431.615 508.703 430.725 508.205 429.487 508.205C428.867 508.205 428.34 508.336 427.904 508.598C427.467 508.851 427.105 509.226 426.818 509.723C426.539 510.22 426.334 510.835 426.203 511.568C426.072 512.292 426.006 513.125 426.006 514.067C426.006 516.09 426.277 517.599 426.818 518.594C427.367 519.588 428.257 520.085 429.487 520.085C430.106 520.085 430.634 519.959 431.07 519.706C431.515 519.444 431.877 519.065 432.156 518.567C432.435 518.07 432.64 517.46 432.771 516.736C432.901 516.003 432.967 515.166 432.967 514.224ZM452.609 517.521C452.609 518.454 452.435 519.265 452.086 519.954C451.746 520.643 451.266 521.215 450.647 521.668C450.027 522.113 449.29 522.444 448.436 522.663C447.581 522.881 446.647 522.99 445.636 522.99C444.737 522.99 443.869 522.937 443.032 522.833C442.195 522.728 441.366 522.554 440.546 522.309V519.13C440.948 519.27 441.366 519.4 441.802 519.523C442.238 519.645 442.675 519.754 443.111 519.85C443.555 519.937 443.996 520.007 444.432 520.059C444.868 520.111 445.291 520.137 445.701 520.137C446.312 520.137 446.831 520.085 447.258 519.98C447.685 519.876 448.034 519.732 448.305 519.549C448.575 519.366 448.771 519.147 448.893 518.895C449.016 518.642 449.077 518.362 449.077 518.057C449.077 517.639 448.955 517.29 448.71 517.011C448.475 516.723 448.161 516.47 447.768 516.252C447.376 516.034 446.927 515.837 446.421 515.663C445.924 515.489 445.413 515.301 444.89 515.1C444.375 514.9 443.865 514.673 443.359 514.42C442.862 514.167 442.417 513.853 442.025 513.478C441.632 513.103 441.314 512.658 441.07 512.144C440.834 511.62 440.716 510.992 440.716 510.26C440.716 509.588 440.838 508.951 441.083 508.349C441.327 507.748 441.711 507.224 442.234 506.779C442.757 506.326 443.429 505.968 444.249 505.707C445.069 505.436 446.059 505.301 447.219 505.301C447.559 505.301 447.912 505.318 448.279 505.353C448.654 505.379 449.02 505.419 449.378 505.471C449.744 505.515 450.093 505.571 450.424 505.641C450.764 505.702 451.074 505.768 451.353 505.837V508.781C451.074 508.676 450.769 508.581 450.437 508.493C450.106 508.406 449.761 508.332 449.404 508.271C449.055 508.201 448.702 508.149 448.344 508.114C447.986 508.079 447.646 508.062 447.323 508.062C446.757 508.062 446.277 508.11 445.884 508.205C445.492 508.293 445.169 508.419 444.916 508.585C444.663 508.742 444.48 508.938 444.367 509.174C444.253 509.409 444.197 509.671 444.197 509.959C444.197 510.316 444.314 510.626 444.55 510.888C444.794 511.14 445.112 511.372 445.505 511.581C445.906 511.782 446.355 511.973 446.852 512.157C447.358 512.331 447.873 512.523 448.396 512.732C448.928 512.933 449.443 513.164 449.94 513.426C450.446 513.687 450.895 514.006 451.288 514.381C451.689 514.756 452.007 515.201 452.243 515.715C452.487 516.221 452.609 516.823 452.609 517.521ZM469.753 517.521C469.753 518.454 469.578 519.265 469.229 519.954C468.889 520.643 468.409 521.215 467.79 521.668C467.171 522.113 466.434 522.444 465.579 522.663C464.724 522.881 463.791 522.99 462.779 522.99C461.881 522.99 461.013 522.937 460.175 522.833C459.338 522.728 458.51 522.554 457.69 522.309V519.13C458.091 519.27 458.51 519.4 458.946 519.523C459.382 519.645 459.818 519.754 460.254 519.85C460.699 519.937 461.139 520.007 461.575 520.059C462.012 520.111 462.435 520.137 462.845 520.137C463.455 520.137 463.974 520.085 464.401 519.98C464.829 519.876 465.178 519.732 465.448 519.549C465.718 519.366 465.915 519.147 466.037 518.895C466.159 518.642 466.22 518.362 466.22 518.057C466.22 517.639 466.098 517.29 465.854 517.011C465.618 516.723 465.304 516.47 464.912 516.252C464.519 516.034 464.07 515.837 463.564 515.663C463.067 515.489 462.557 515.301 462.033 515.1C461.519 514.9 461.008 514.673 460.503 514.42C460.005 514.167 459.561 513.853 459.168 513.478C458.776 513.103 458.457 512.658 458.213 512.144C457.977 511.62 457.86 510.992 457.86 510.26C457.86 509.588 457.982 508.951 458.226 508.349C458.47 507.748 458.854 507.224 459.377 506.779C459.901 506.326 460.572 505.968 461.392 505.707C462.212 505.436 463.202 505.301 464.362 505.301C464.702 505.301 465.056 505.318 465.422 505.353C465.797 505.379 466.163 505.419 466.521 505.471C466.887 505.515 467.236 505.571 467.568 505.641C467.908 505.702 468.217 505.768 468.497 505.837V508.781C468.217 508.676 467.912 508.581 467.581 508.493C467.249 508.406 466.905 508.332 466.547 508.271C466.198 508.201 465.845 508.149 465.487 508.114C465.13 508.079 464.79 508.062 464.467 508.062C463.9 508.062 463.42 508.11 463.028 508.205C462.635 508.293 462.312 508.419 462.06 508.585C461.807 508.742 461.623 508.938 461.51 509.174C461.397 509.409 461.34 509.671 461.34 509.959C461.34 510.316 461.458 510.626 461.693 510.888C461.937 511.14 462.256 511.372 462.648 511.581C463.049 511.782 463.499 511.973 463.996 512.157C464.502 512.331 465.016 512.523 465.54 512.732C466.072 512.933 466.586 513.164 467.084 513.426C467.589 513.687 468.039 514.006 468.431 514.381C468.832 514.756 469.151 515.201 469.386 515.715C469.63 516.221 469.753 516.823 469.753 517.521ZM496.372 508.31V513.046H502.836V515.689H496.372V522.689H493.102V505.589H503.202V508.31H496.372ZM521.431 516.396C521.431 517.486 521.283 518.445 520.986 519.274C520.699 520.094 520.28 520.779 519.73 521.328C519.19 521.878 518.527 522.292 517.742 522.571C516.957 522.85 516.076 522.99 515.099 522.99C514 522.99 513.058 522.85 512.273 522.571C511.488 522.292 510.851 521.891 510.363 521.367C509.874 520.844 509.521 520.207 509.303 519.457C509.085 518.707 508.976 517.865 508.976 516.932V505.589H512.194V516.736C512.194 517.311 512.242 517.822 512.338 518.267C512.443 518.711 512.617 519.091 512.862 519.405C513.115 519.71 513.429 519.941 513.804 520.098C514.179 520.255 514.65 520.334 515.217 520.334C515.749 520.334 516.198 520.268 516.564 520.137C516.931 519.998 517.236 519.78 517.48 519.483C517.724 519.178 517.907 518.79 518.03 518.319C518.152 517.848 518.213 517.277 518.213 516.605V505.589H521.431V516.396ZM534.663 522.689L530.084 512.484L529.142 510.286V517.377V522.689H526.211V505.589H530.162L534.833 515.859L535.657 517.861V510.312V505.589H538.588V522.689H534.663ZM555.26 522.021C554.501 522.327 553.764 522.554 553.049 522.702C552.342 522.85 551.605 522.924 550.838 522.924C549.608 522.924 548.518 522.745 547.567 522.388C546.625 522.021 545.827 521.481 545.173 520.765C544.527 520.05 544.035 519.165 543.694 518.11C543.363 517.045 543.197 515.811 543.197 514.407C543.197 512.968 543.38 511.69 543.747 510.574C544.113 509.448 544.636 508.502 545.317 507.734C545.997 506.958 546.821 506.369 547.789 505.968C548.766 505.558 549.861 505.353 551.073 505.353C551.466 505.353 551.832 505.362 552.172 505.379C552.521 505.397 552.861 505.432 553.193 505.484C553.524 505.528 553.86 505.589 554.2 505.667C554.54 505.746 554.894 505.846 555.26 505.968V509.161C554.519 508.812 553.812 508.563 553.141 508.415C552.469 508.267 551.858 508.192 551.309 508.192C550.498 508.192 549.804 508.341 549.229 508.637C548.653 508.925 548.178 509.335 547.803 509.867C547.436 510.39 547.166 511.018 546.991 511.751C546.817 512.475 546.73 513.273 546.73 514.145C546.73 515.07 546.817 515.898 546.991 516.631C547.175 517.355 547.454 517.97 547.829 518.476C548.204 518.982 548.683 519.37 549.268 519.64C549.852 519.902 550.546 520.033 551.348 520.033C551.636 520.033 551.946 520.007 552.277 519.954C552.617 519.893 552.957 519.819 553.298 519.732C553.646 519.636 553.987 519.527 554.318 519.405C554.658 519.274 554.972 519.143 555.26 519.012V522.021ZM561.23 508.219V505.589H572.037V508.219H568.269V520.033H572.037V522.689H561.23V520.033H564.998V508.219H561.23ZM590.659 514.067C590.659 515.619 590.476 516.958 590.109 518.083C589.752 519.209 589.255 520.133 588.618 520.857C587.99 521.581 587.249 522.117 586.394 522.466C585.548 522.815 584.641 522.99 583.672 522.99C581.422 522.99 579.73 522.244 578.596 520.752C577.462 519.252 576.895 517.076 576.895 514.224C576.895 512.671 577.074 511.332 577.432 510.207C577.798 509.082 578.295 508.157 578.923 507.434C579.56 506.71 580.301 506.173 581.147 505.824C582.002 505.475 582.914 505.301 583.882 505.301C586.132 505.301 587.824 506.047 588.958 507.538C590.092 509.03 590.659 511.206 590.659 514.067ZM587.257 514.224C587.257 512.2 586.987 510.691 586.446 509.697C585.905 508.703 585.016 508.205 583.777 508.205C583.158 508.205 582.63 508.336 582.194 508.598C581.758 508.851 581.396 509.226 581.108 509.723C580.829 510.22 580.624 510.835 580.493 511.568C580.362 512.292 580.297 513.125 580.297 514.067C580.297 516.09 580.567 517.599 581.108 518.594C581.658 519.588 582.547 520.085 583.777 520.085C584.396 520.085 584.924 519.959 585.36 519.706C585.805 519.444 586.167 519.065 586.446 518.567C586.725 518.07 586.93 517.46 587.061 516.736C587.192 516.003 587.257 515.166 587.257 514.224ZM603.236 522.689L598.657 512.484L597.715 510.286V517.377V522.689H594.784V505.589H598.736L603.406 515.859L604.231 517.861V510.312V505.589H607.161V522.689H603.236ZM621.819 522.689L620.877 519.313H614.911L613.943 522.689H610.75L615.813 505.589H620.314L625.377 522.689H621.819ZM617.933 508.729L615.683 516.683H620.157L617.933 508.729ZM630.419 522.689V505.589H633.69V519.928H640.912V522.689H630.419Z" fill="white"/>
<path d="M650.04 516H683.533" stroke="white" stroke-width="3.82781"/>
<g clip-path="url(#clip0_92_165)">
<path d="M563.712 278.551C564.399 273.513 560.945 271.872 559.132 271.682C561.575 263.057 565.62 262.491 567.337 263.286C570.237 270.918 563.076 284.084 559.132 289.713V284.084C562.49 282.481 563.584 279.727 563.712 278.551Z" fill="white"/>
<path d="M583.555 259.661C582.334 258.287 577.004 255.972 574.492 254.986C577.24 271.319 565.397 292.193 559.132 300.589C563.254 300.36 573.888 287.9 578.69 281.699C576.934 289.331 568.545 300.97 564.57 305.836C568.921 307.133 577.259 289.776 580.884 280.936C582.283 274.416 584.776 261.035 583.555 259.661Z" fill="white"/>
<path d="M590.042 268.056L585.94 265.957C585.024 279.543 577.354 295.023 573.633 301.066C577.297 297.784 584.128 288.886 587.085 284.847C586.78 287.366 580.852 298.426 577.926 303.641C588.154 294.635 590.265 276.166 590.042 268.056Z" fill="white"/>
<path d="M597.388 280.936L592.046 278.551C592.046 279.009 590.71 284.593 590.042 287.328C592.027 287.786 594.749 289.108 595.862 289.713L597.388 280.936Z" fill="white"/>
<path d="M546.635 287.518C544.65 281.184 539.193 281.699 536.713 282.748C537.323 285.42 544.027 291.43 547.303 294.101C547.907 294.546 548.619 293.853 546.635 287.518Z" fill="white"/>
<path d="M551.5 289.713L548.638 289.045C550.699 297.211 547.27 306.631 545.299 310.32C545.146 294.292 538.43 291.939 535.091 292.766C535.93 298.795 533.851 301.384 532.706 301.924L531.179 300.589L530.512 301.352C530.817 302.954 527.395 306.79 525.646 308.507L524.978 310.32C525.436 317.494 519.063 325.33 515.82 328.351L515.247 327.206C515.247 321.787 514.611 319.033 514.293 318.333L505.135 309.175C501.776 306.961 499.601 303.037 498.933 301.352L497.979 301.924H496.739C493.915 300.55 494.227 295.246 494.736 292.766C490.08 293.376 489.17 292.511 489.298 292.002C491.74 288.186 492.923 284.752 493.209 283.512C492.446 280.917 487.803 281.922 485.577 282.748C480.998 288.32 481.952 297.472 483.001 301.352C483.535 298.299 486.022 295.246 487.199 294.101L487.867 294.864C485.577 301.962 484.814 308.57 484.718 310.987C477.926 301.447 480.743 287.423 483.001 281.603C478.803 280.688 476.991 281.985 476.609 282.748C483.173 301.066 476.418 305.327 472.221 305.168L471.458 306.503C477.182 313.83 483.256 314.772 485.577 314.326C488.63 319.135 493.909 322.372 496.167 323.39H497.979C495.003 321.482 492.828 314.962 492.113 311.941C490.319 308.965 490.825 302.306 491.301 299.348L492.446 298.108L493.209 306.503C495.652 316.425 499.442 320.623 501.032 321.482C498.132 312.934 499.824 309.715 501.032 309.175C501.795 320.776 509.555 329.336 513.339 332.167H515.247C525.322 326.061 528.095 315.058 528.222 310.32L529.558 309.175C530.855 312.914 529.589 318.938 528.794 321.482L529.558 322.245C537.19 313.697 537.762 301.447 537.094 296.391L538.239 296.772C542.895 303.718 541.387 314.04 540.052 318.333C541.96 317.799 543.963 314.358 544.726 312.705L546.635 311.941C551.824 309.957 553.567 305.581 553.79 303.641C550.126 300.436 550.737 293.02 551.5 289.713Z" fill="white"/>
<path d="M498.933 278.36H497.407L494.736 287.518L491.301 290.953C495.041 291.182 497.948 289.776 498.933 289.045L499.601 287.518C500.899 280.42 499.697 278.455 498.933 278.36Z" fill="white"/>
<path d="M515.247 304.691V313.277C514.255 314.345 508.092 308.698 505.135 305.74C503.608 305.13 500.364 298.999 498.933 296.009C498.399 294.33 498.075 295.309 497.979 296.009L498.456 298.68L497.407 299.348L496.739 298.108C495.747 291.392 499.188 291.239 501.032 292.002C503.475 293.909 510.891 298.521 514.293 300.588H515.247L516.487 300.111L527.077 292.765C529.977 291.086 532.42 292.575 533.278 293.529L533.755 298.68L532.706 299.348C530.798 298.356 531.656 296.709 532.324 296.009L531.179 295.437C528.661 303.756 520.781 309.906 517.155 311.941C517.079 310.033 518.586 308.348 519.349 307.744C524.539 304.385 527.427 298.14 528.222 295.437H527.077C516.638 301.771 514.841 304.246 515.247 304.691Z" fill="white"/>
<path d="M563.712 278.551C564.399 273.513 560.945 271.872 559.132 271.682C561.575 263.057 565.62 262.491 567.337 263.286C570.237 270.918 563.076 284.084 559.132 289.713V284.084C562.49 282.481 563.584 279.727 563.712 278.551Z" stroke="white" stroke-width="0.190805"/>
<path d="M583.555 259.661C582.334 258.287 577.004 255.972 574.492 254.986C577.24 271.319 565.397 292.193 559.132 300.589C563.254 300.36 573.888 287.9 578.69 281.699C576.934 289.331 568.545 300.97 564.57 305.836C568.921 307.133 577.259 289.776 580.884 280.936C582.283 274.416 584.776 261.035 583.555 259.661Z" stroke="white" stroke-width="0.190805"/>
<path d="M590.042 268.056L585.94 265.957C585.024 279.543 577.354 295.023 573.633 301.066C577.297 297.784 584.128 288.886 587.085 284.847C586.78 287.366 580.852 298.426 577.926 303.641C588.154 294.635 590.265 276.166 590.042 268.056Z" stroke="white" stroke-width="0.190805"/>
<path d="M597.388 280.936L592.046 278.551C592.046 279.009 590.71 284.593 590.042 287.328C592.027 287.786 594.749 289.108 595.862 289.713L597.388 280.936Z" stroke="white" stroke-width="0.190805"/>
<path d="M546.635 287.518C544.65 281.184 539.193 281.699 536.713 282.748C537.323 285.42 544.027 291.43 547.303 294.101C547.907 294.546 548.619 293.853 546.635 287.518Z" stroke="white" stroke-width="0.190805"/>
<path d="M551.5 289.713L548.638 289.045C550.699 297.211 547.27 306.631 545.299 310.32C545.146 294.292 538.43 291.939 535.091 292.766C535.93 298.795 533.851 301.384 532.706 301.924L531.179 300.589L530.512 301.352C530.817 302.954 527.395 306.79 525.646 308.507L524.978 310.32C525.436 317.494 519.063 325.33 515.82 328.351L515.247 327.206C515.247 321.787 514.611 319.033 514.293 318.333L505.135 309.175C501.776 306.961 499.601 303.037 498.933 301.352L497.979 301.924H496.739C493.915 300.55 494.227 295.246 494.736 292.766C490.08 293.376 489.17 292.511 489.298 292.002C491.74 288.186 492.923 284.752 493.209 283.512C492.446 280.917 487.803 281.922 485.577 282.748C480.998 288.32 481.952 297.472 483.001 301.352C483.535 298.299 486.022 295.246 487.199 294.101L487.867 294.864C485.577 301.962 484.814 308.57 484.718 310.987C477.926 301.447 480.743 287.423 483.001 281.603C478.803 280.688 476.991 281.985 476.609 282.748C483.173 301.066 476.418 305.327 472.221 305.168L471.458 306.503C477.182 313.83 483.256 314.772 485.577 314.326C488.63 319.135 493.909 322.372 496.167 323.39H497.979C495.003 321.482 492.828 314.962 492.113 311.941C490.319 308.965 490.825 302.306 491.301 299.348L492.446 298.108L493.209 306.503C495.652 316.425 499.442 320.623 501.032 321.482C498.132 312.934 499.824 309.715 501.032 309.175C501.795 320.776 509.555 329.336 513.339 332.167H515.247C525.322 326.061 528.095 315.058 528.222 310.32L529.558 309.175C530.855 312.914 529.589 318.938 528.794 321.482L529.558 322.245C537.19 313.697 537.762 301.447 537.094 296.391L538.239 296.772C542.895 303.718 541.387 314.04 540.052 318.333C541.96 317.799 543.963 314.358 544.726 312.705L546.635 311.941C551.824 309.957 553.567 305.581 553.79 303.641C550.126 300.436 550.737 293.02 551.5 289.713Z" stroke="white" stroke-width="0.190805"/>
<path d="M498.933 278.36H497.407L494.736 287.518L491.301 290.953C495.041 291.182 497.948 289.776 498.933 289.045L499.601 287.518C500.899 280.42 499.697 278.455 498.933 278.36Z" stroke="white" stroke-width="0.190805"/>
<path d="M515.247 304.691V313.277C514.255 314.345 508.092 308.698 505.135 305.74C503.608 305.13 500.364 298.999 498.933 296.009C498.399 294.33 498.075 295.309 497.979 296.009L498.456 298.68L497.407 299.348L496.739 298.108C495.747 291.392 499.188 291.239 501.032 292.002C503.475 293.909 510.891 298.521 514.293 300.588H515.247L516.487 300.111L527.077 292.765C529.977 291.086 532.42 292.575 533.278 293.529L533.755 298.68L532.706 299.348C530.798 298.356 531.656 296.709 532.324 296.009L531.179 295.437C528.661 303.756 520.781 309.906 517.155 311.941C517.079 310.033 518.586 308.348 519.349 307.744C524.539 304.385 527.427 298.14 528.222 295.437H527.077C516.638 301.771 514.841 304.246 515.247 304.691Z" stroke="white" stroke-width="0.190805"/>
<path d="M505.326 286.469C503.723 286.622 502.877 284.37 502.654 283.225C501.815 283.454 501.923 286.437 502.082 287.9C503.532 290.19 511.336 293.243 515.057 294.483L514.77 289.903L519.827 289.617C522.345 288.396 526.537 287.964 528.317 287.9L527.84 286.469L528.317 284.561L527.84 283.893C526.314 285.496 524.47 286.278 523.738 286.469C515.495 288.301 508.029 287.232 505.326 286.469Z" fill="white"/>
<path d="M533.373 278.169H530.702C529.71 277.864 530.289 285.165 530.702 288.854C534.824 291.831 537.508 291.43 538.334 290.857C533.602 287.041 533.055 280.808 533.373 278.169Z" fill="white"/>
<path d="M527.363 275.116L526.6 276.356C535.072 276.891 552.263 280.141 559.8 281.699C561.861 278.722 561.549 275.689 561.136 274.544C552.206 270.88 536.872 269.646 530.321 269.487L528.317 272.826C546.024 274.124 552.868 277.12 554.076 278.455C550.413 277.387 534.741 275.784 527.363 275.116Z" fill="white"/>
<path d="M501.414 272.731L499.601 269.297C487.466 268.915 473.683 272.699 468.309 274.639C468.309 280.058 470.281 281.603 471.267 281.699C474.014 279.562 493.845 277.374 503.417 276.547L502.081 275.021C493.991 275.631 481.729 277.438 476.609 278.264L474.701 277.978C475.999 276.299 493.05 273.78 501.414 272.731Z" fill="white"/>
<path d="M470.599 283.798C461.516 276.089 467.514 272.19 471.648 271.205C464.245 258.535 461.885 261.664 461.631 264.813C462.776 279.924 468.277 287.9 470.885 289.999C471.419 288.701 470.917 285.324 470.599 283.798Z" fill="white"/>
<path d="M455.43 255.177C454.896 254.49 448.974 257.944 446.081 259.756C446.081 289.217 459.055 302.878 465.543 306.026C455.01 294.731 451.614 284.402 451.232 280.649C456.346 289.732 465.892 297.663 470.027 300.493C451.041 272.254 456.098 256.036 455.43 255.177Z" fill="white"/>
<path d="M444.077 266.053L439.498 268.438C441.253 293.777 448.879 302.147 452.472 303.164C444.23 291.563 443.441 286.374 444.077 285.229C449.19 294.998 455.112 299.857 457.433 301.066C446.672 287.48 444.045 272.063 444.077 266.053Z" fill="white"/>
<path d="M438.353 278.264L432.534 280.649C431.77 283.55 433.297 288.091 434.155 289.999C434.995 289.999 438.703 287.9 440.452 286.851C439.307 286.469 438.576 280.967 438.353 278.264Z" fill="white"/>
<path d="M505.326 286.469C503.723 286.622 502.877 284.37 502.654 283.225C501.815 283.454 501.923 286.437 502.082 287.9C503.532 290.19 511.336 293.243 515.057 294.483L514.77 289.903L519.827 289.617C522.345 288.396 526.537 287.964 528.317 287.9L527.84 286.469L528.317 284.561L527.84 283.893C526.314 285.496 524.47 286.278 523.738 286.469C515.495 288.301 508.029 287.232 505.326 286.469Z" stroke="white" stroke-width="0.190805"/>
<path d="M533.373 278.169H530.702C529.71 277.864 530.289 285.165 530.702 288.854C534.824 291.831 537.508 291.43 538.334 290.857C533.602 287.041 533.055 280.808 533.373 278.169Z" stroke="white" stroke-width="0.190805"/>
<path d="M527.363 275.116L526.6 276.356C535.072 276.891 552.263 280.141 559.8 281.699C561.861 278.722 561.549 275.689 561.136 274.544C552.206 270.88 536.872 269.646 530.321 269.487L528.317 272.826C546.024 274.124 552.868 277.12 554.076 278.455C550.413 277.387 534.741 275.784 527.363 275.116Z" stroke="white" stroke-width="0.190805"/>
<path d="M501.414 272.731L499.601 269.297C487.466 268.915 473.683 272.699 468.309 274.639C468.309 280.058 470.281 281.603 471.267 281.699C474.014 279.562 493.845 277.374 503.417 276.547L502.081 275.021C493.991 275.631 481.729 277.438 476.609 278.264L474.701 277.978C475.999 276.299 493.05 273.78 501.414 272.731Z" stroke="white" stroke-width="0.190805"/>
<path d="M470.599 283.798C461.516 276.089 467.514 272.19 471.648 271.205C464.245 258.535 461.885 261.664 461.631 264.813C462.776 279.924 468.277 287.9 470.885 289.999C471.419 288.701 470.917 285.324 470.599 283.798Z" stroke="white" stroke-width="0.190805"/>
<path d="M455.43 255.177C454.896 254.49 448.974 257.944 446.081 259.756C446.081 289.217 459.055 302.878 465.543 306.026C455.01 294.731 451.614 284.402 451.232 280.649C456.346 289.732 465.892 297.663 470.027 300.493C451.041 272.254 456.098 256.036 455.43 255.177Z" stroke="white" stroke-width="0.190805"/>
<path d="M444.077 266.053L439.498 268.438C441.253 293.777 448.879 302.147 452.472 303.164C444.23 291.563 443.441 286.374 444.077 285.229C449.19 294.998 455.112 299.857 457.433 301.066C446.672 287.48 444.045 272.063 444.077 266.053Z" stroke="white" stroke-width="0.190805"/>
<path d="M438.353 278.264L432.534 280.649C431.77 283.55 433.297 288.091 434.155 289.999C434.995 289.999 438.703 287.9 440.452 286.851C439.307 286.469 438.576 280.967 438.353 278.264Z" stroke="white" stroke-width="0.190805"/>
<path d="M476.418 228.941C474.434 230.62 469.422 231.74 467.164 232.09C465.485 234.15 463.793 240.199 463.157 242.965C462.547 254.185 465.574 257.562 467.164 257.848C466.172 252.811 470.122 245.828 472.221 242.965C469.613 242.902 464.855 242.527 466.687 241.534C468.977 240.294 478.899 226.843 476.418 228.941Z" fill="white"/>
<path d="M493.877 265.671L492.923 267.484C496.052 268.247 497.089 267.166 497.216 266.53L493.877 265.671Z" fill="white"/>
<path d="M505.516 266.53C503.379 266.53 501.954 267.547 501.509 268.056C500.746 270.918 507.806 277.406 506.184 274.353C504.886 271.911 505.643 270.219 506.184 269.678L505.516 266.53Z" fill="white"/>
<path d="M513.435 266.53H507.424L509.046 268.533L510.859 267.484L513.435 268.056C513.816 267.547 514.351 266.53 513.435 266.53Z" fill="white"/>
<path d="M521.353 266.53H516.583L515.724 267.484L516.583 268.533L519.159 268.056H522.021L521.353 266.53Z" fill="white"/>
<path d="M528.031 268.056C526.733 266.377 524.438 266.339 523.452 266.53C524.215 267.98 524.342 272.349 524.31 274.353C526.091 272.954 529.328 269.735 528.031 268.056Z" fill="white"/>
<path d="M535.377 265.671L532.42 266.53C531.179 267.389 536.713 268.533 537.094 267.484C537.4 266.644 536.077 265.926 535.377 265.671Z" fill="white"/>
<path d="M507.424 275.879C510.223 276.388 517.194 277.1 522.689 275.879C520.304 273.971 513.912 271.3 507.424 275.879Z" fill="white"/>
<path d="M525.455 283.607C526.371 281.546 526.219 278.105 526.028 276.643L521.353 282.653V284.943C522.339 285.356 524.539 285.668 525.455 283.607Z" fill="white"/>
<path d="M517.06 285.992L520.303 285.42L519.158 283.607C518.243 282.157 517.378 283.321 517.06 284.084V285.992Z" fill="white"/>
<path d="M516.583 286.183H513.816V283.607H515.724L516.583 286.183Z" fill="white"/>
<path d="M509.046 285.992L509.055 285.992C509.215 285.695 509.402 285.346 509.619 284.943C511.832 280.821 512.703 284.052 512.862 286.183L509.055 285.992C507.582 288.733 508.386 287.225 509.046 285.992Z" fill="white"/>
<path d="M508.474 281.985C507.558 281.451 505.166 278.201 504.085 276.643C502.94 277.864 503.99 282.112 504.657 284.084L508.474 285.42C508.855 284.497 509.389 282.519 508.474 281.985Z" fill="white"/>
<path d="M467.164 232.09C469.422 231.74 474.434 230.62 476.418 228.941C478.899 226.843 468.977 240.294 466.687 241.534C464.855 242.527 469.613 242.902 472.221 242.965C470.122 245.828 466.172 252.811 467.164 257.848C465.574 257.562 462.547 254.185 463.157 242.965C463.793 240.199 465.485 234.15 467.164 232.09ZM492.923 267.484L493.877 265.671L497.216 266.53C497.089 267.166 496.052 268.247 492.923 267.484ZM501.509 268.056C501.954 267.547 503.379 266.53 505.516 266.53L506.184 269.678C505.643 270.219 504.886 271.911 506.184 274.353C507.806 277.406 500.746 270.918 501.509 268.056ZM507.424 266.53C509.046 266.53 512.518 266.53 513.434 266.53C514.35 266.53 513.816 267.547 513.434 268.056L510.858 267.484L509.046 268.533L507.424 266.53ZM516.583 266.53H521.353L522.021 268.056H519.158L516.583 268.533L515.724 267.484L516.583 266.53ZM523.452 266.53C524.437 266.339 526.733 266.377 528.031 268.056C529.328 269.735 526.091 272.954 524.31 274.353C524.342 272.349 524.215 267.98 523.452 266.53ZM532.419 266.53L535.377 265.671C536.077 265.926 537.399 266.644 537.094 267.484C536.712 268.533 531.179 267.388 532.419 266.53ZM507.424 275.879C510.222 276.388 517.193 277.1 522.688 275.879C520.303 273.971 513.911 271.3 507.424 275.879ZM526.027 276.643C526.218 278.105 526.371 281.546 525.455 283.607C524.539 285.668 522.339 285.356 521.353 284.943V282.653L526.027 276.643ZM520.303 285.42L517.06 285.992V284.084C517.378 283.321 518.243 282.157 519.158 283.607L520.303 285.42ZM513.816 286.183H516.583L515.724 283.607H513.816V286.183ZM509.046 285.992L512.862 286.183C512.703 284.052 511.832 280.821 509.618 284.943C507.405 289.064 508.314 287.359 509.046 285.992ZM504.085 276.643C505.166 278.201 507.558 281.451 508.473 281.985C509.389 282.519 508.855 284.497 508.473 285.42L504.657 284.084C503.989 282.112 502.94 277.864 504.085 276.643Z" stroke="white" stroke-width="0.190805"/>
<path d="M496.548 234.666C494.03 238.634 497.598 240.517 499.696 240.962C495.27 243.023 493.146 240.103 492.637 238.386C491.492 239.913 493.495 242.33 494.64 243.347C493.114 243.271 492.669 246.114 492.637 247.545C491.492 248.613 488.916 249.834 487.771 250.312V246.209L490.538 241.821L487.771 242.679C486.397 240.848 489.043 236.574 490.538 234.666L492.637 235.715L494.64 233.33L496.548 234.666Z" fill="white" stroke="white" stroke-width="0.190805"/>
<path d="M480.139 225.507C486.626 209.937 494.799 209.543 498.075 211.292C488.611 213.353 488.534 221.627 489.679 225.507C487.39 224.82 487.899 230.436 488.439 233.33C488.439 237.68 479.789 243.92 475.464 246.495C475.464 248.709 482.27 245.573 485.672 243.729C484.528 253.269 487.04 255.59 488.439 255.559C489.043 259.502 489.622 267.637 487.103 268.629C484.585 269.621 479.376 269.869 477.086 269.869C476.323 262.618 481.157 253.364 483.669 249.644V247.926C477.868 252.658 474.256 261.092 473.175 264.717C470.045 253.651 473.397 244.969 475.464 242.011C482.791 238.653 485.323 232.599 485.672 229.991C479.261 238.386 473.715 239.976 471.744 239.722C475.636 235.982 478.962 228.687 480.139 225.507Z" fill="white" stroke="white" stroke-width="0.190805"/>
<path d="M475.465 223.408C474.243 223.255 472.921 218.129 472.412 215.585C472.412 218.791 463.953 224.807 459.723 227.415C468.405 231.422 476.991 223.599 475.465 223.408Z" fill="white" stroke="white" stroke-width="0.190805"/>
<path d="M541.006 233.139L542.055 229.228C548.771 239.76 553.249 241.884 554.648 241.63C557.472 245.446 558.432 252.951 558.56 256.226C557.262 253.403 553.058 250.852 551.118 249.93C542.494 243.977 546.571 250.057 549.687 253.841C552.282 259.489 552.867 267.134 552.835 270.251L551.118 269.392C551.118 267.026 549.083 262.809 548.065 260.997C547.226 255.959 544.917 255.082 543.868 255.272C543.581 256.195 543.181 259.47 543.868 265.194C544.555 270.918 542.246 267.579 541.006 265.194C540.166 258.478 541.355 255.781 542.055 255.272L543.868 252.029C544.707 250.96 544.217 247.386 543.868 245.732L544.917 243.061C551.862 248.251 553.09 247.004 552.835 245.732C547.875 243.214 542.882 236.287 541.006 233.139Z" fill="white" stroke="white" stroke-width="0.190805"/>
<path d="M562.471 231.899H559.896L564.856 244.397V247.831L563.616 257.371L567.241 252.887C568.31 246.782 564.507 236.351 562.471 231.899Z" fill="white" stroke="white" stroke-width="0.190805"/>
<path d="M561.708 226.27C558.121 224.286 557.352 219.02 557.415 216.634C561.765 222.511 568.196 226.588 570.867 227.892C565.83 229.189 562.662 227.351 561.708 226.27Z" fill="white" stroke="white" stroke-width="0.190805"/>
<path d="M553.504 233.33C545.871 211.654 536.013 209.416 532.038 211.006C540.739 214.517 544.758 223.026 545.681 226.843C549.462 237.833 555.524 239.881 558.083 239.531C555.793 238.081 554.076 234.793 553.504 233.33Z" fill="white" stroke="white" stroke-width="0.190805"/>
<path fill-rule="evenodd" clip-rule="evenodd" d="M539.384 230.277C540.434 221.882 526.123 215.013 519.063 225.793C518.078 228.178 515.896 233.101 515.057 233.711C514.717 233.958 514.168 232.897 513.331 231.279C511.582 227.899 508.577 222.092 503.608 220.737C505.421 220.101 510.248 220.584 515.057 227.606C518.205 222.295 526.448 212.38 534.232 215.203C532.324 212.596 525.818 210.796 515.057 224.457C509.714 215.203 493.324 205.625 491.492 222.263L496.071 218.543C493.4 223.058 488.745 231.727 491.492 230.277C493.782 228.655 499.411 227.568 503.608 236.192C504.753 237.973 508.245 241 513.053 238.863C512.417 241.089 509.638 244.473 503.608 240.199C502.336 240.199 500.365 241.21 502.654 245.255C499.824 244.142 494.183 242.927 494.259 246.972C495.913 247.386 499.258 248.423 499.411 249.262C499.463 249.55 498.683 249.5 497.58 249.431C494.662 249.246 489.484 248.918 491.492 254.318C491.906 252.792 493.4 250.197 496.071 252.029C492.987 254.923 489.107 261.588 498.266 265.099C499.57 265.417 503.131 265.652 506.947 264.049C508.983 263.827 513.053 263.229 513.053 262.618C513.053 262.486 512.438 262.189 511.496 261.736C507.011 259.575 495.121 253.849 506.947 245.255C505.198 247.64 502.75 252.468 506.947 252.697C509.078 252.633 513.511 252.983 514.198 254.891H516.201C516.392 254.159 517.88 252.697 522.307 252.697C524.724 252.665 528.108 251.132 522.307 245.255L518.396 241.248L516.201 239.531L517.06 238.863C518.046 239.308 520.475 240.065 522.307 239.531C524.139 238.997 527.713 234.157 529.271 231.803C531.052 230.15 535.263 227.529 537.858 230.277C538.367 230.862 539.384 231.68 539.384 230.277ZM515.057 252.697V243.729C515.743 242.508 517.569 242.775 518.396 243.061L520.781 246.972C523.299 249.567 521.83 250.852 520.781 251.17C517.651 251.704 516.424 252.792 516.201 253.269C515.82 253.364 515.057 253.383 515.057 252.697Z" fill="white"/>
<path d="M515.057 243.729C515.057 246.432 515.057 252.01 515.057 252.697M515.057 243.729C515.743 242.508 517.569 242.775 518.396 243.061L520.781 246.972C523.299 249.567 521.83 250.852 520.781 251.17C517.651 251.704 516.424 252.792 516.201 253.269C515.82 253.364 515.057 253.383 515.057 252.697M515.057 243.729V252.697M539.384 230.277C540.434 221.882 526.123 215.013 519.063 225.793C518.078 228.178 515.896 233.101 515.057 233.711C514.717 233.958 514.168 232.897 513.331 231.279C511.582 227.899 508.577 222.092 503.608 220.737C505.421 220.101 510.248 220.584 515.057 227.606C518.205 222.295 526.448 212.38 534.232 215.203C532.324 212.596 525.818 210.796 515.057 224.457C509.714 215.203 493.324 205.625 491.492 222.263L496.071 218.543C493.4 223.058 488.745 231.727 491.492 230.277C493.782 228.655 499.411 227.568 503.608 236.192C504.753 237.973 508.245 241 513.053 238.863C512.417 241.089 509.638 244.473 503.608 240.199C502.336 240.199 500.365 241.21 502.654 245.255C499.824 244.142 494.183 242.927 494.259 246.972C495.913 247.386 499.258 248.423 499.411 249.262C499.463 249.55 498.683 249.5 497.58 249.431C494.662 249.246 489.484 248.918 491.492 254.318C491.906 252.792 493.4 250.197 496.071 252.029C492.987 254.923 489.107 261.588 498.266 265.099C499.57 265.417 503.131 265.652 506.947 264.049C508.983 263.827 513.053 263.229 513.053 262.618C513.053 262.486 512.438 262.189 511.496 261.736C507.011 259.575 495.121 253.849 506.947 245.255C505.198 247.64 502.75 252.468 506.947 252.697C509.078 252.633 513.511 252.983 514.198 254.891H516.201C516.392 254.159 517.88 252.697 522.307 252.697C524.724 252.665 528.108 251.132 522.307 245.255L518.396 241.248L516.201 239.531L517.06 238.863C518.046 239.308 520.475 240.065 522.307 239.531C524.139 238.997 527.713 234.157 529.271 231.803C531.052 230.15 535.263 227.529 537.858 230.277C538.367 230.862 539.384 231.68 539.384 230.277Z" stroke="white" stroke-width="0.190805"/>
<path d="M530.512 240.867C533.336 243.004 535.95 240.549 536.904 239.054C537.972 240.123 536.459 242.043 535.568 242.87C534.5 244.473 537.349 245.7 538.907 246.114C538.068 241 538.557 237.369 538.907 236.192C534.48 231.384 533.247 233.425 533.183 235.047C535.32 237.642 532.292 240.008 530.512 240.867Z" fill="#FFFCFC" stroke="white" stroke-width="0.190805"/>
<path fill-rule="evenodd" clip-rule="evenodd" d="M527.172 246.972C527.649 246.654 529.214 246.209 531.656 246.972L530.225 249.834C533.501 248.912 540.052 248.518 540.052 254.318C538.525 252.751 535.091 249.984 533.564 251.456C535.949 253.428 539.918 258.211 536.713 261.569C535.313 263.636 531.237 267.331 526.123 265.576C525.074 264.844 521.868 263.382 517.441 263.382V261.569C520.908 260.392 527.707 257.295 527.172 254.318C527.522 252.951 528.012 249.567 527.172 246.972ZM533.564 261.569C538.144 253.631 532.229 252.792 528.699 253.364C527.574 260.248 523.233 260.657 521 260.867C520.014 260.96 519.439 261.014 519.731 261.569C520.494 263.019 523.293 263.382 524.597 263.382C531.16 265.671 533.31 263.127 533.564 261.569Z" fill="white" stroke="white" stroke-width="0.190805"/>
<path d="M498.743 237.528C498.997 235.969 500.155 233.788 502.75 237.528C502.018 238.195 500.193 239.13 498.743 237.528Z" fill="white"/>
<path d="M527.84 237.528C528.031 236.319 528.909 234.398 530.893 236.383C530.543 237.877 529.443 240.199 527.84 237.528Z" fill="white"/>
<path d="M498.743 237.528C498.997 235.969 500.155 233.788 502.75 237.528C502.018 238.195 500.193 239.13 498.743 237.528Z" stroke="white" stroke-width="0.190805"/>
<path d="M527.84 237.528C528.031 236.319 528.909 234.398 530.893 236.383C530.543 237.877 529.443 240.199 527.84 237.528Z" stroke="white" stroke-width="0.190805"/>
<path d="M515.152 343.52L527.554 330.736C531.402 330.354 540.376 327.454 545.49 318.906C548.352 318.938 555.946 317.227 563.425 310.129C565.683 309.715 570.562 308.316 572.012 306.026C574.683 307.935 581.151 309.442 585.654 300.207L592.905 301.733C595.862 299.285 601.663 291.373 601.205 279.314L594.527 276.07C594.527 274.162 594.527 269.449 594.527 265.862L587.562 263.191V257.848L572.012 250.312C572.33 247.131 572.012 239.264 568.196 233.234C570.104 232.853 574.607 231.021 577.354 226.747C571.757 225.73 560.067 218.962 558.083 200.034C553.949 190.621 539.575 174.371 515.152 184.675" stroke="white" stroke-width="2.48046"/>
<path d="M514.414 343.483L502.012 330.699C498.164 330.317 489.19 327.417 484.076 318.869C481.214 318.901 473.62 317.19 466.14 310.092C463.883 309.679 459.004 308.279 457.554 305.99C454.883 307.898 448.415 309.405 443.912 300.17L436.661 301.697C433.704 299.248 427.903 291.336 428.361 279.277L435.039 276.033C435.039 274.125 435.039 269.413 435.039 265.825L442.004 263.154V257.812L457.554 250.275C457.236 247.095 457.554 239.227 461.37 233.198C459.462 232.816 454.959 230.985 452.212 226.71C457.808 225.693 469.498 218.926 471.483 199.998C475.617 190.585 489.991 174.335 514.414 184.638" stroke="white" stroke-width="2.48046"/>
<path d="M511.717 340.371L515.152 345.141" stroke="white" stroke-width="2.48046"/>
<path d="M511.145 183.625L515.724 185.82" stroke="white" stroke-width="2.48046"/>
<path d="M540.624 209.67L536.045 207.19C541.998 200.55 550.355 201.052 553.79 202.133C556.843 208.163 553.599 218.193 551.595 222.454L549.974 219.02C551.595 215.076 553.866 206.865 549.974 205.568C546.081 204.27 542.119 207.762 540.624 209.67Z" fill="white" stroke="white" stroke-width="1.52644"/>
<path d="M489.309 209.552L493.888 207.072C487.935 200.432 479.578 200.934 476.144 202.016C473.091 208.045 476.334 218.075 478.338 222.336L479.96 218.902C478.338 214.958 476.067 206.748 479.96 205.45C483.852 204.153 487.814 207.644 489.309 209.552Z" fill="white" stroke="white" stroke-width="1.52644"/>
<path d="M546.539 192.498C545.013 196.772 536.427 203.374 532.324 206.14C531.027 207.045 537.699 199.394 541.197 195.455C528.127 198.413 521.639 213.677 522.116 211.769C522.593 209.861 525.646 201.37 523.738 203.183C522.212 204.633 519.222 209.511 517.918 211.769C518.376 205.968 516.265 198.476 515.152 195.455C511.942 201.127 512.093 209.019 512.646 212.92C512.71 213.185 512.751 213.438 512.767 213.677C512.725 213.446 512.685 213.193 512.646 212.92C511.798 209.395 506.952 203.855 504.467 201.37C506.146 205.034 507.329 209.829 507.71 211.769C498.476 195.665 489.552 195.074 486.245 196.791C492.198 198.546 496.23 203.755 497.502 206.14C492.389 199.042 481.634 198.54 476.896 199.176C490.633 181.393 504.371 194.438 509.523 203.183C506.241 193.337 500.142 189.095 497.502 188.205C502.845 184.77 511.495 187.855 515.152 189.826C522.86 185.323 529.812 186.869 532.324 188.205C520.952 194.387 521.862 199.557 523.738 201.37C529.691 187.022 541.419 189.477 546.539 192.498Z" fill="white"/>
<path d="M532.324 206.14C536.427 203.374 545.013 196.772 546.539 192.498C541.419 189.477 529.691 187.022 523.738 201.37C521.862 199.557 520.952 194.387 532.324 188.205C529.812 186.869 522.86 185.323 515.152 189.826C511.495 187.855 502.845 184.77 497.502 188.205C500.142 189.095 506.241 193.337 509.523 203.183C504.371 194.438 490.633 181.393 476.896 199.176C481.634 198.54 492.389 199.042 497.502 206.14C496.23 203.755 492.198 198.546 486.245 196.791C489.552 195.074 498.476 195.665 507.71 211.769C507.329 209.829 506.146 205.034 504.467 201.37C507.138 204.041 512.538 210.243 512.767 213.677C512.131 210.131 511.717 201.524 515.152 195.455C516.265 198.476 518.376 205.968 517.918 211.769C519.222 209.511 522.212 204.633 523.738 203.183C525.646 201.37 522.593 209.861 522.116 211.769C521.639 213.677 528.127 198.413 541.197 195.455C537.699 199.394 531.027 207.045 532.324 206.14Z" stroke="white" stroke-width="0.572414"/>
</g>
<path d="M667.613 286.983V240H845L769.377 363.095H697.488L740.435 286.983H667.613Z" fill="white" stroke="white"/>
<path d="M361.387 288.862V241.879H184L259.623 364.974H331.511L288.565 288.862H361.387Z" fill="white" stroke="white"/>
<path d="M513.566 785V677.879L589.189 549.146H657.343L513.566 785Z" fill="white" stroke="white"/>
<path d="M514.5 784.06V676.94L438.877 548.207H370.723L514.5 784.06Z" fill="white" stroke="white"/>
</g>
<defs>
<filter id="filter0_d_92_165" x="0.705963" y="-2.39999" width="1027.59" height="971.581" filterUnits="userSpaceOnUse" color-interpolation-filters="sRGB">
<feFlood flood-opacity="0" result="BackgroundImageFix"/>
<feColorMatrix in="SourceAlpha" type="matrix" values="0 0 0 0 0 0 0 0 0 0 0 0 0 0 0 0 0 0 127 0" result="hardAlpha"/>
<feOffset/>
<feGaussianBlur stdDeviation="91.2"/>
<feColorMatrix type="matrix" values="0 0 0 0 0 0 0 0 0 0 0 0 0 0 0 0 0 0 1 0"/>
<feBlend mode="normal" in2="BackgroundImageFix" result="effect1_dropShadow_92_165"/>
<feBlend mode="normal" in="SourceGraphic" in2="effect1_dropShadow_92_165" result="shape"/>
</filter>
<clipPath id="clip0_92_165">
<rect width="175.54" height="166" fill="white" transform="translate(427 180)"/>
</clipPath>
</defs>
</svg>
